<svg width="400" height="300" viewBox="0 0 400 300" fill="none" xmlns="http://www.w3.org/2000/svg">
<rect width="400" height="300" fill="url(#paint0_radial_3474_1551)"/>
<rect x="194.25" y="16.25" width="11.5" height="0.5" stroke="#E5E5E5" stroke-width="0.5" stroke-dasharray="2 2"/>
<path opacity="0.25" d="M37.1132 142.643L40 139.756L42.8868 142.643L40 145.53L37.1132 142.643ZM199.148 82.2893C199.343 82.094 199.66 82.094 199.855 82.2893L203.037 85.4712C203.232 85.6665 203.232 85.9831 203.037 86.1784C202.842 86.3736 202.525 86.3736 202.33 86.1784L199.502 83.3499L196.673 86.1784C196.478 86.3736 196.161 86.3736 195.966 86.1784C195.771 85.9831 195.771 85.6665 195.966 85.4712L199.148 82.2893ZM40 142.643C40 142.143 40.0005 142.143 40.0016 142.143C40.0028 142.143 40.0046 142.143 40.0069 142.143C40.0116 142.143 40.0188 142.143 40.0283 142.143C40.0474 142.143 40.076 142.143 40.1141 142.143C40.1903 142.142 40.3041 142.142 40.4545 142.141C40.7553 142.139 41.202 142.136 41.785 142.128C42.951 142.114 44.662 142.084 46.8402 142.026C51.1965 141.909 57.421 141.675 64.8908 141.206C79.8323 140.27 99.7479 138.396 119.658 134.651C139.577 130.905 159.451 125.292 174.334 116.895C189.219 108.495 199.002 97.3789 199.002 82.6428H199.502H200.002C200.002 97.9068 189.846 109.29 174.825 117.766C159.801 126.243 139.8 131.881 119.843 135.634C99.8783 139.389 79.9185 141.266 64.9534 142.204C57.47 142.674 51.2334 142.908 46.867 143.025C44.6838 143.084 42.968 143.113 41.7975 143.128C41.2123 143.135 40.7634 143.139 40.4606 143.141C40.3092 143.142 40.1943 143.142 40.1171 143.143C40.0785 143.143 40.0494 143.143 40.0298 143.143C40.02 143.143 40.0126 143.143 40.0077 143.143C40.0052 143.143 40.0033 143.143 40.002 143.143C40.0007 143.143 40 143.143 40 142.643Z" fill="#A855F7"/>
<path opacity="0.25" d="M37.1132 142.643L40 139.756L42.8868 142.643L40 145.53L37.1132 142.643ZM199.646 123.289C199.842 123.094 200.158 123.094 200.354 123.289L203.536 126.471C203.731 126.667 203.731 126.983 203.536 127.178C203.34 127.374 203.024 127.374 202.828 127.178L200 124.35L197.172 127.178C196.976 127.374 196.66 127.374 196.464 127.178C196.269 126.983 196.269 126.667 196.464 126.471L199.646 123.289ZM40 142.643C40 142.143 40.0006 142.143 40.0018 142.143C40.003 142.143 40.0048 142.143 40.0072 142.143C40.012 142.143 40.0193 142.143 40.0289 142.143C40.0482 142.143 40.0771 142.143 40.1155 142.143C40.1922 142.143 40.3068 142.143 40.458 142.142C40.7604 142.142 41.2093 142.141 41.7949 142.138C42.9661 142.134 44.6841 142.124 46.8708 142.106C51.2442 142.069 57.4923 141.994 64.9901 141.846C79.9864 141.549 99.9793 140.956 119.97 139.769C139.966 138.581 159.942 136.802 174.912 134.135C182.402 132.801 188.609 131.25 192.933 129.453C195.097 128.553 196.758 127.605 197.871 126.614C198.981 125.625 199.5 124.637 199.5 123.643H200H200.5C200.5 125.024 199.769 126.262 198.536 127.361C197.304 128.457 195.528 129.457 193.317 130.376C188.891 132.216 182.598 133.782 175.088 135.119C160.058 137.797 140.034 139.579 120.03 140.767C100.021 141.955 80.0136 142.549 65.0099 142.846C57.5077 142.994 51.2558 143.069 46.8792 143.106C44.6909 143.124 42.9714 143.134 41.7989 143.138C41.2126 143.141 40.763 143.142 40.4599 143.142C40.3084 143.143 40.1935 143.143 40.1164 143.143C40.0779 143.143 40.0488 143.143 40.0294 143.143C40.0196 143.143 40.0123 143.143 40.0074 143.143C40.005 143.143 40.0031 143.143 40.0019 143.143C40.0006 143.143 40 143.143 40 142.643Z" fill="#EC4899"/>
<path opacity="0.25" d="M197.113 123.643L200 126.53L202.887 123.643L200 120.756L197.113 123.643ZM360.354 123.996C360.549 123.801 360.549 123.485 360.354 123.289L357.172 120.107C356.976 119.912 356.66 119.912 356.464 120.107C356.269 120.303 356.269 120.619 356.464 120.814L359.293 123.643L356.464 126.471C356.269 126.667 356.269 126.983 356.464 127.178C356.66 127.374 356.976 127.374 357.172 127.178L360.354 123.996ZM360 123.643V123.143H200V123.643V124.143H360V123.643Z" fill="#A855F7"/>
<path opacity="0.25" d="M197.113 136.643L200 139.53L202.887 136.643L200 133.756L197.113 136.643ZM360.354 136.996C360.549 136.801 360.549 136.485 360.354 136.289L357.172 133.107C356.976 132.912 356.66 132.912 356.464 133.107C356.269 133.303 356.269 133.619 356.464 133.814L359.293 136.643L356.464 139.471C356.269 139.667 356.269 139.983 356.464 140.178C356.66 140.374 356.976 140.374 357.172 140.178L360.354 136.996ZM360 136.643V136.143H200V136.643V137.143H360V136.643Z" fill="#EC4899"/>
<path d="M37.1132 149.643L40 152.53L42.8868 149.643L40 146.756L37.1132 149.643ZM360.354 149.996C360.549 149.801 360.549 149.485 360.354 149.289L357.172 146.107C356.976 145.912 356.66 145.912 356.464 146.107C356.269 146.303 356.269 146.619 356.464 146.814L359.293 149.643L356.464 152.471C356.269 152.667 356.269 152.983 356.464 153.178C356.66 153.374 356.976 153.374 357.172 153.178L360.354 149.996ZM360 149.643L360 149.143L40 149.143L40 149.643L40 150.143L360 150.143L360 149.643Z" fill="#0EA5E9"/>
<path opacity="0.25" d="M197.113 162.643L200 165.53L202.887 162.643L200 159.756L197.113 162.643ZM360.354 162.996C360.549 162.801 360.549 162.485 360.354 162.289L357.172 159.107C356.976 158.912 356.66 158.912 356.464 159.107C356.269 159.303 356.269 159.619 356.464 159.814L359.293 162.643L356.464 165.471C356.269 165.667 356.269 165.983 356.464 166.178C356.66 166.374 356.976 166.374 357.172 166.178L360.354 162.996ZM360 162.643V162.143H200V162.643V163.143H360V162.643Z" fill="#22C55E"/>
<path opacity="0.25" d="M197.113 175.643L200 178.53L202.887 175.643L200 172.756L197.113 175.643ZM360.354 175.996C360.549 175.801 360.549 175.485 360.354 175.289L357.172 172.107C356.976 171.912 356.66 171.912 356.464 172.107C356.269 172.303 356.269 172.619 356.464 172.814L359.293 175.643L356.464 178.471C356.269 178.667 356.269 178.983 356.464 179.178C356.66 179.374 356.976 179.374 357.172 179.178L360.354 175.996ZM360 175.643V175.143H200V175.643V176.143H360V175.643Z" fill="#F59E0B"/>
<path opacity="0.25" d="M37.1132 156.643L40 159.53L42.8868 156.643L40 153.756L37.1132 156.643ZM199.646 175.996C199.842 176.192 200.158 176.192 200.354 175.996L203.536 172.814C203.731 172.619 203.731 172.303 203.536 172.107C203.34 171.912 203.024 171.912 202.828 172.107L200 174.936L197.172 172.107C196.976 171.912 196.66 171.912 196.464 172.107C196.269 172.303 196.269 172.619 196.464 172.814L199.646 175.996ZM40 156.643C40 157.143 40.0006 157.143 40.0018 157.143C40.003 157.143 40.0048 157.143 40.0072 157.143C40.012 157.143 40.0193 157.143 40.0289 157.143C40.0482 157.143 40.0771 157.143 40.1155 157.143C40.1922 157.143 40.3068 157.143 40.458 157.143C40.7604 157.144 41.2093 157.145 41.7949 157.147C42.9661 157.152 44.6841 157.161 46.8708 157.18C51.2442 157.217 57.4923 157.291 64.9901 157.44C79.9864 157.736 99.9793 158.33 119.97 159.517C139.966 160.704 159.942 162.484 174.912 165.151C182.402 166.485 188.609 168.036 192.933 169.833C195.097 170.732 196.758 171.681 197.871 172.672C198.981 173.661 199.5 174.649 199.5 175.643H200H200.5C200.5 174.262 199.769 173.023 198.536 171.925C197.304 170.828 195.528 169.829 193.317 168.91C188.891 167.07 182.598 165.504 175.088 164.166C160.058 161.489 140.034 159.706 120.03 158.519C100.021 157.331 80.0136 156.737 65.0099 156.44C57.5077 156.291 51.2558 156.217 46.8792 156.18C44.6909 156.161 42.9714 156.152 41.7989 156.147C41.2126 156.145 40.763 156.144 40.4599 156.143C40.3084 156.143 40.1935 156.143 40.1164 156.143C40.0779 156.143 40.0488 156.143 40.0294 156.143C40.0196 156.143 40.0123 156.143 40.0074 156.143C40.005 156.143 40.0031 156.143 40.0019 156.143C40.0006 156.143 40 156.143 40 156.643Z" fill="#22C55E"/>
<path opacity="0.25" d="M37.1132 156.643L40 159.53L42.8868 156.643L40 153.756L37.1132 156.643ZM199.148 216.996C199.343 217.192 199.66 217.192 199.855 216.996L203.037 213.814C203.232 213.619 203.232 213.303 203.037 213.107C202.842 212.912 202.525 212.912 202.33 213.107L199.502 215.936L196.673 213.107C196.478 212.912 196.161 212.912 195.966 213.107C195.771 213.303 195.771 213.619 195.966 213.814L199.148 216.996ZM40 156.643C40 157.143 40.0005 157.143 40.0016 157.143C40.0028 157.143 40.0046 157.143 40.0069 157.143C40.0116 157.143 40.0188 157.143 40.0283 157.143C40.0474 157.143 40.076 157.143 40.1141 157.143C40.1903 157.143 40.3041 157.144 40.4545 157.145C40.7553 157.146 41.202 157.15 41.785 157.157C42.951 157.172 44.662 157.201 46.8402 157.26C51.1965 157.377 57.421 157.611 64.8908 158.079C79.8323 159.016 99.7479 160.889 119.658 164.634C139.577 168.381 159.451 173.993 174.334 182.391C189.219 190.79 199.002 201.907 199.002 216.643H199.502H200.002C200.002 201.379 189.846 189.995 174.825 181.52C159.801 173.042 139.8 167.405 119.843 163.651C99.8783 159.896 79.9185 158.02 64.9534 157.081C57.47 156.612 51.2334 156.378 46.867 156.26C44.6838 156.202 42.968 156.172 41.7975 156.158C41.2123 156.15 40.7634 156.146 40.4606 156.145C40.3092 156.144 40.1943 156.143 40.1171 156.143C40.0785 156.143 40.0494 156.143 40.0298 156.143C40.02 156.143 40.0126 156.143 40.0077 156.143C40.0052 156.143 40.0033 156.143 40.002 156.143C40.0007 156.143 40 156.143 40 156.643Z" fill="#F59E0B"/>
<rect x="179.75" y="80.75" width="31.9082" height="137.5" rx="8.25095" fill="white"/>
<rect x="179.75" y="80.75" width="31.9082" height="137.5" rx="8.25095" stroke="#E2E8F0" stroke-width="0.5"/>
<path fill-rule="evenodd" clip-rule="evenodd" d="M192.121 149.658C192.016 149.942 191.848 150.201 191.629 150.416H191.63C191.378 150.662 191.066 150.842 190.723 150.94C190.38 151.038 190.017 151.05 189.667 150.975C189.318 150.9 188.994 150.741 188.725 150.512C188.456 150.282 188.251 149.991 188.129 149.664C188.007 149.338 187.971 148.987 188.026 148.643C188.081 148.3 188.223 147.975 188.441 147.7C188.659 147.424 188.945 147.206 189.273 147.067C189.6 146.928 189.959 146.871 190.315 146.902L190.305 146.892C190.669 146.922 191.036 146.874 191.379 146.752C191.723 146.629 192.035 146.436 192.293 146.185C192.552 145.933 192.751 145.63 192.877 145.296C193.002 144.962 193.052 144.605 193.021 144.251L193.031 144.261C192.99 143.838 193.085 143.412 193.302 143.042C193.519 142.673 193.848 142.378 194.245 142.196C194.641 142.015 195.085 141.958 195.516 142.031C195.947 142.104 196.345 142.305 196.654 142.606C196.964 142.907 197.17 143.293 197.246 143.712C197.321 144.132 197.262 144.563 197.075 144.948C196.889 145.333 196.585 145.653 196.205 145.864C195.825 146.075 195.387 146.167 194.951 146.128L194.962 146.138C194.598 146.108 194.231 146.155 193.887 146.277C193.543 146.399 193.231 146.593 192.973 146.844C192.714 147.096 192.515 147.399 192.389 147.733C192.263 148.067 192.214 148.424 192.245 148.778L192.234 148.768C192.264 149.069 192.225 149.373 192.121 149.658ZM195.507 151.545L195.496 151.535C195.806 151.565 196.119 151.528 196.412 151.426C196.706 151.325 196.972 151.161 197.192 150.947C197.412 150.733 197.581 150.474 197.686 150.189C197.79 149.904 197.829 149.6 197.798 149.299L197.809 149.309C197.778 148.955 197.827 148.599 197.953 148.265C198.078 147.931 198.277 147.627 198.536 147.376C198.795 147.125 199.107 146.931 199.45 146.809C199.794 146.687 200.16 146.639 200.525 146.669L200.514 146.659C200.95 146.699 201.388 146.607 201.768 146.396C202.149 146.184 202.453 145.864 202.639 145.479C202.825 145.094 202.885 144.662 202.81 144.243C202.734 143.824 202.528 143.437 202.218 143.136C201.908 142.835 201.511 142.634 201.079 142.561C200.648 142.488 200.204 142.545 199.807 142.727C199.411 142.908 199.082 143.203 198.865 143.573C198.648 143.943 198.553 144.369 198.594 144.792L198.584 144.782C198.614 145.136 198.565 145.493 198.44 145.827C198.314 146.161 198.115 146.464 197.856 146.715C197.598 146.967 197.286 147.16 196.942 147.282C196.599 147.404 196.232 147.452 195.867 147.422L195.878 147.433C195.568 147.402 195.255 147.439 194.962 147.541C194.669 147.643 194.402 147.806 194.182 148.02C193.962 148.234 193.793 148.493 193.688 148.778C193.584 149.063 193.545 149.367 193.576 149.668L193.566 149.658C193.597 150.012 193.547 150.369 193.422 150.703C193.296 151.037 193.097 151.34 192.838 151.591C192.58 151.843 192.268 152.036 191.924 152.158C191.581 152.28 191.214 152.328 190.85 152.298L190.86 152.309C190.424 152.269 189.986 152.361 189.606 152.572C189.225 152.783 188.921 153.103 188.735 153.488C188.549 153.873 188.489 154.305 188.564 154.725C188.64 155.144 188.846 155.53 189.156 155.831C189.466 156.132 189.863 156.333 190.295 156.406C190.726 156.48 191.17 156.422 191.567 156.241C191.963 156.06 192.292 155.764 192.509 155.394C192.727 155.025 192.821 154.599 192.78 154.175L192.791 154.185C192.76 153.831 192.809 153.474 192.935 153.14C193.061 152.806 193.26 152.503 193.518 152.252C193.777 152 194.089 151.807 194.433 151.685C194.776 151.563 195.143 151.515 195.507 151.545ZM199.776 148.583C199.557 148.798 199.389 149.056 199.284 149.341C199.18 149.626 199.141 149.93 199.171 150.231L199.161 150.221C199.191 150.575 199.142 150.931 199.017 151.265C198.891 151.599 198.692 151.903 198.433 152.154C198.175 152.405 197.863 152.599 197.519 152.721C197.176 152.843 196.809 152.891 196.444 152.861L196.455 152.871C196.019 152.832 195.581 152.924 195.201 153.135C194.821 153.347 194.517 153.667 194.331 154.052C194.145 154.437 194.085 154.869 194.161 155.288C194.237 155.708 194.443 156.094 194.753 156.395C195.063 156.696 195.461 156.896 195.892 156.969C196.323 157.042 196.767 156.984 197.164 156.803C197.56 156.622 197.889 156.326 198.106 155.957C198.323 155.587 198.417 155.161 198.376 154.738L198.387 154.748C198.357 154.393 198.406 154.037 198.531 153.703C198.657 153.369 198.856 153.066 199.115 152.814C199.373 152.563 199.685 152.369 200.029 152.247C200.372 152.125 200.739 152.077 201.104 152.107L201.093 152.097C201.449 152.128 201.807 152.071 202.135 151.932C202.462 151.793 202.748 151.575 202.967 151.3C203.185 151.024 203.328 150.7 203.382 150.356C203.437 150.013 203.401 149.661 203.279 149.335C203.157 149.008 202.952 148.717 202.683 148.487C202.414 148.258 202.09 148.099 201.741 148.024C201.392 147.949 201.029 147.961 200.686 148.059C200.343 148.157 200.03 148.337 199.778 148.583H199.776Z" fill="url(#paint1_linear_3474_1551)"/>
<defs>
<radialGradient id="paint0_radial_3474_1551" cx="0" cy="0" r="1" gradientUnits="userSpaceOnUse" gradientTransform="translate(200 150) rotate(90) scale(150 200)">
<stop stop-color="#EFF6FF"/>
<stop offset="1" stop-color="white"/>
</radialGradient>
<linearGradient id="paint1_linear_3474_1551" x1="188.001" y1="142" x2="202.996" y2="157.401" gradientUnits="userSpaceOnUse">
<stop stop-color="#3C8CE7"/>
<stop offset="1" stop-color="#00EAFF"/>
</linearGradient>
</defs>
</svg>
