<svg width="400" height="300" viewBox="0 0 400 300" fill="none" xmlns="http://www.w3.org/2000/svg">
<rect width="400" height="300" fill="url(#paint0_radial_3528_357)"/>
<mask id="path-1-outside-1_3528_357" maskUnits="userSpaceOnUse" x="85.5088" y="38" width="229" height="223" fill="black">
<rect fill="white" x="85.5088" y="38" width="229" height="223"/>
<path fill-rule="evenodd" clip-rule="evenodd" d="M147.819 152.097C146.289 156.265 143.831 160.054 140.62 163.193H140.637C136.943 166.799 132.373 169.439 127.35 170.87C122.327 172.3 117.014 172.476 111.903 171.379C106.792 170.282 102.048 167.95 98.1116 164.596C94.175 161.243 91.1727 156.978 89.383 152.197C87.5933 147.415 87.0743 142.273 87.8736 137.244C88.6731 132.216 90.7651 127.465 93.9563 123.432C97.1473 119.399 101.334 116.214 106.128 114.173C110.923 112.132 116.17 111.299 121.383 111.754L121.23 111.606C126.566 112.044 131.935 111.344 136.964 109.556C141.992 107.769 146.559 104.936 150.345 101.256C154.131 97.5751 157.045 93.1359 158.884 88.2477C160.723 83.3595 161.443 78.14 160.992 72.9536L161.145 73.1019C160.547 66.8995 161.932 60.669 165.111 55.2598C168.289 49.8507 173.106 45.5263 178.906 42.8763C184.706 40.2263 191.205 39.3796 197.517 40.452C203.83 41.5242 209.65 44.4633 214.181 48.8681C218.712 53.273 221.735 58.9294 222.839 65.0658C223.941 71.2023 223.07 77.5201 220.344 83.1578C217.618 88.7955 213.17 93.4785 207.606 96.5683C202.041 99.6581 195.631 101.004 189.251 100.423L189.412 100.571C184.075 100.131 178.704 100.829 173.673 102.615C168.642 104.402 164.074 107.234 160.286 110.915C156.498 114.595 153.582 119.035 151.742 123.925C149.902 128.815 149.182 134.036 149.633 139.224L149.472 139.076C149.913 143.48 149.349 147.927 147.819 152.097ZM197.391 179.721L197.229 179.573C201.765 180.016 206.344 179.475 210.638 177.988C214.931 176.501 218.83 174.106 222.055 170.974C225.277 167.843 227.746 164.053 229.278 159.881C230.812 155.709 231.372 151.258 230.918 146.849L231.08 146.997C230.628 141.811 231.349 136.592 233.186 131.703C235.025 126.815 237.94 122.376 241.726 118.695C245.513 115.015 250.08 112.182 255.108 110.395C260.136 108.607 265.505 107.908 270.841 108.346L270.681 108.197C277.063 108.78 283.474 107.435 289.042 104.345C294.609 101.254 299.06 96.5702 301.787 90.9308C304.516 85.2914 305.387 78.9713 304.284 72.8325C303.182 66.6938 300.157 61.0352 295.624 56.6287C291.09 52.2223 285.269 49.2823 278.954 48.2101C272.639 47.1376 266.139 47.9851 260.336 50.6367C254.535 53.2883 249.716 57.615 246.538 63.0267C243.358 68.4382 241.974 74.6714 242.575 80.8758L242.422 80.7194C242.873 85.906 242.155 91.1262 240.316 96.015C238.478 100.904 235.563 105.344 231.778 109.025C227.991 112.705 223.424 115.538 218.395 117.325C213.365 119.112 207.995 119.81 202.66 119.371L202.812 119.528C198.278 119.084 193.697 119.625 189.405 121.112C185.112 122.598 181.211 124.995 177.988 128.126C174.764 131.258 172.296 135.048 170.763 139.22C169.23 143.392 168.67 147.842 169.124 152.252L168.971 152.103C169.42 157.289 168.699 162.508 166.86 167.396C165.02 172.283 162.107 176.721 158.321 180.402C154.535 184.082 149.969 186.914 144.941 188.703C139.913 190.49 134.544 191.192 129.209 190.755L129.362 190.903C122.979 190.32 116.567 191.666 111 194.755C105.433 197.846 100.982 202.53 98.2542 208.169C95.5264 213.809 94.6546 220.129 95.7577 226.268C96.8609 232.407 99.8854 238.065 104.418 242.471C108.951 246.878 114.772 249.818 121.087 250.89C127.403 251.962 133.904 251.115 139.706 248.463C145.507 245.812 150.326 241.486 153.504 236.074C156.683 230.662 158.068 224.429 157.468 218.224L157.629 218.372C157.178 213.186 157.898 207.967 159.737 203.079C161.575 198.191 164.49 193.751 168.276 190.071C172.062 186.391 176.629 183.557 181.657 181.771C186.686 179.982 192.055 179.283 197.391 179.721ZM259.882 136.367C256.67 139.507 254.212 143.296 252.681 147.465C251.149 151.633 250.583 156.079 251.021 160.486L250.868 160.338C251.319 165.524 250.599 170.743 248.76 175.631C246.921 180.52 244.007 184.959 240.222 188.639C236.435 192.319 231.868 195.153 226.84 196.939C221.811 198.728 216.441 199.427 211.107 198.989L211.258 199.137C204.877 198.561 198.467 199.91 192.903 203.004C187.338 206.097 182.892 210.784 180.168 216.423C177.445 222.064 176.577 228.383 177.683 234.521C178.79 240.658 181.817 246.315 186.351 250.718C190.886 255.122 196.707 258.059 203.021 259.128C209.336 260.199 215.835 259.349 221.636 256.697C227.436 254.044 232.252 249.718 235.429 244.306C238.607 238.894 239.99 232.662 239.391 226.459L239.551 226.608C239.101 221.421 239.82 216.202 241.659 211.313C243.498 206.425 246.413 201.986 250.198 198.305C253.985 194.625 258.551 191.791 263.579 190.005C268.609 188.217 273.978 187.517 279.313 187.955L279.152 187.807C284.365 188.262 289.613 187.431 294.408 185.391C299.203 183.35 303.39 180.167 306.583 176.134C309.774 172.101 311.868 167.351 312.667 162.323C313.469 157.294 312.95 152.151 311.161 147.368C309.372 142.587 306.37 138.321 302.434 134.967C298.497 131.613 293.754 129.28 288.642 128.184C283.53 127.086 278.218 127.261 273.194 128.691C268.171 130.122 263.6 132.762 259.907 136.367H259.882Z"/>
</mask>
<path fill-rule="evenodd" clip-rule="evenodd" d="M147.819 152.097C146.289 156.265 143.831 160.054 140.62 163.193H140.637C136.943 166.799 132.373 169.439 127.35 170.87C122.327 172.3 117.014 172.476 111.903 171.379C106.792 170.282 102.048 167.95 98.1116 164.596C94.175 161.243 91.1727 156.978 89.383 152.197C87.5933 147.415 87.0743 142.273 87.8736 137.244C88.6731 132.216 90.7651 127.465 93.9563 123.432C97.1473 119.399 101.334 116.214 106.128 114.173C110.923 112.132 116.17 111.299 121.383 111.754L121.23 111.606C126.566 112.044 131.935 111.344 136.964 109.556C141.992 107.769 146.559 104.936 150.345 101.256C154.131 97.5751 157.045 93.1359 158.884 88.2477C160.723 83.3595 161.443 78.14 160.992 72.9536L161.145 73.1019C160.547 66.8995 161.932 60.669 165.111 55.2598C168.289 49.8507 173.106 45.5263 178.906 42.8763C184.706 40.2263 191.205 39.3796 197.517 40.452C203.83 41.5242 209.65 44.4633 214.181 48.8681C218.712 53.273 221.735 58.9294 222.839 65.0658C223.941 71.2023 223.07 77.5201 220.344 83.1578C217.618 88.7955 213.17 93.4785 207.606 96.5683C202.041 99.6581 195.631 101.004 189.251 100.423L189.412 100.571C184.075 100.131 178.704 100.829 173.673 102.615C168.642 104.402 164.074 107.234 160.286 110.915C156.498 114.595 153.582 119.035 151.742 123.925C149.902 128.815 149.182 134.036 149.633 139.224L149.472 139.076C149.913 143.48 149.349 147.927 147.819 152.097ZM197.391 179.721L197.229 179.573C201.765 180.016 206.344 179.475 210.638 177.988C214.931 176.501 218.83 174.106 222.055 170.974C225.277 167.843 227.746 164.053 229.278 159.881C230.812 155.709 231.372 151.258 230.918 146.849L231.08 146.997C230.628 141.811 231.349 136.592 233.186 131.703C235.025 126.815 237.94 122.376 241.726 118.695C245.513 115.015 250.08 112.182 255.108 110.395C260.136 108.607 265.505 107.908 270.841 108.346L270.681 108.197C277.063 108.78 283.474 107.435 289.042 104.345C294.609 101.254 299.06 96.5702 301.787 90.9308C304.516 85.2914 305.387 78.9713 304.284 72.8325C303.182 66.6938 300.157 61.0352 295.624 56.6287C291.09 52.2223 285.269 49.2823 278.954 48.2101C272.639 47.1376 266.139 47.9851 260.336 50.6367C254.535 53.2883 249.716 57.615 246.538 63.0267C243.358 68.4382 241.974 74.6714 242.575 80.8758L242.422 80.7194C242.873 85.906 242.155 91.1262 240.316 96.015C238.478 100.904 235.563 105.344 231.778 109.025C227.991 112.705 223.424 115.538 218.395 117.325C213.365 119.112 207.995 119.81 202.66 119.371L202.812 119.528C198.278 119.084 193.697 119.625 189.405 121.112C185.112 122.598 181.211 124.995 177.988 128.126C174.764 131.258 172.296 135.048 170.763 139.22C169.23 143.392 168.67 147.842 169.124 152.252L168.971 152.103C169.42 157.289 168.699 162.508 166.86 167.396C165.02 172.283 162.107 176.721 158.321 180.402C154.535 184.082 149.969 186.914 144.941 188.703C139.913 190.49 134.544 191.192 129.209 190.755L129.362 190.903C122.979 190.32 116.567 191.666 111 194.755C105.433 197.846 100.982 202.53 98.2542 208.169C95.5264 213.809 94.6546 220.129 95.7577 226.268C96.8609 232.407 99.8854 238.065 104.418 242.471C108.951 246.878 114.772 249.818 121.087 250.89C127.403 251.962 133.904 251.115 139.706 248.463C145.507 245.812 150.326 241.486 153.504 236.074C156.683 230.662 158.068 224.429 157.468 218.224L157.629 218.372C157.178 213.186 157.898 207.967 159.737 203.079C161.575 198.191 164.49 193.751 168.276 190.071C172.062 186.391 176.629 183.557 181.657 181.771C186.686 179.982 192.055 179.283 197.391 179.721ZM259.882 136.367C256.67 139.507 254.212 143.296 252.681 147.465C251.149 151.633 250.583 156.079 251.021 160.486L250.868 160.338C251.319 165.524 250.599 170.743 248.76 175.631C246.921 180.52 244.007 184.959 240.222 188.639C236.435 192.319 231.868 195.153 226.84 196.939C221.811 198.728 216.441 199.427 211.107 198.989L211.258 199.137C204.877 198.561 198.467 199.91 192.903 203.004C187.338 206.097 182.892 210.784 180.168 216.423C177.445 222.064 176.577 228.383 177.683 234.521C178.79 240.658 181.817 246.315 186.351 250.718C190.886 255.122 196.707 258.059 203.021 259.128C209.336 260.199 215.835 259.349 221.636 256.697C227.436 254.044 232.252 249.718 235.429 244.306C238.607 238.894 239.99 232.662 239.391 226.459L239.551 226.608C239.101 221.421 239.82 216.202 241.659 211.313C243.498 206.425 246.413 201.986 250.198 198.305C253.985 194.625 258.551 191.791 263.579 190.005C268.609 188.217 273.978 187.517 279.313 187.955L279.152 187.807C284.365 188.262 289.613 187.431 294.408 185.391C299.203 183.35 303.39 180.167 306.583 176.134C309.774 172.101 311.868 167.351 312.667 162.323C313.469 157.294 312.95 152.151 311.161 147.368C309.372 142.587 306.37 138.321 302.434 134.967C298.497 131.613 293.754 129.28 288.642 128.184C283.53 127.086 278.218 127.261 273.194 128.691C268.171 130.122 263.6 132.762 259.907 136.367H259.882Z" fill="url(#paint1_radial_3528_357)"/>
<path fill-rule="evenodd" clip-rule="evenodd" d="M147.819 152.097C146.289 156.265 143.831 160.054 140.62 163.193H140.637C136.943 166.799 132.373 169.439 127.35 170.87C122.327 172.3 117.014 172.476 111.903 171.379C106.792 170.282 102.048 167.95 98.1116 164.596C94.175 161.243 91.1727 156.978 89.383 152.197C87.5933 147.415 87.0743 142.273 87.8736 137.244C88.6731 132.216 90.7651 127.465 93.9563 123.432C97.1473 119.399 101.334 116.214 106.128 114.173C110.923 112.132 116.17 111.299 121.383 111.754L121.23 111.606C126.566 112.044 131.935 111.344 136.964 109.556C141.992 107.769 146.559 104.936 150.345 101.256C154.131 97.5751 157.045 93.1359 158.884 88.2477C160.723 83.3595 161.443 78.14 160.992 72.9536L161.145 73.1019C160.547 66.8995 161.932 60.669 165.111 55.2598C168.289 49.8507 173.106 45.5263 178.906 42.8763C184.706 40.2263 191.205 39.3796 197.517 40.452C203.83 41.5242 209.65 44.4633 214.181 48.8681C218.712 53.273 221.735 58.9294 222.839 65.0658C223.941 71.2023 223.07 77.5201 220.344 83.1578C217.618 88.7955 213.17 93.4785 207.606 96.5683C202.041 99.6581 195.631 101.004 189.251 100.423L189.412 100.571C184.075 100.131 178.704 100.829 173.673 102.615C168.642 104.402 164.074 107.234 160.286 110.915C156.498 114.595 153.582 119.035 151.742 123.925C149.902 128.815 149.182 134.036 149.633 139.224L149.472 139.076C149.913 143.48 149.349 147.927 147.819 152.097ZM197.391 179.721L197.229 179.573C201.765 180.016 206.344 179.475 210.638 177.988C214.931 176.501 218.83 174.106 222.055 170.974C225.277 167.843 227.746 164.053 229.278 159.881C230.812 155.709 231.372 151.258 230.918 146.849L231.08 146.997C230.628 141.811 231.349 136.592 233.186 131.703C235.025 126.815 237.94 122.376 241.726 118.695C245.513 115.015 250.08 112.182 255.108 110.395C260.136 108.607 265.505 107.908 270.841 108.346L270.681 108.197C277.063 108.78 283.474 107.435 289.042 104.345C294.609 101.254 299.06 96.5702 301.787 90.9308C304.516 85.2914 305.387 78.9713 304.284 72.8325C303.182 66.6938 300.157 61.0352 295.624 56.6287C291.09 52.2223 285.269 49.2823 278.954 48.2101C272.639 47.1376 266.139 47.9851 260.336 50.6367C254.535 53.2883 249.716 57.615 246.538 63.0267C243.358 68.4382 241.974 74.6714 242.575 80.8758L242.422 80.7194C242.873 85.906 242.155 91.1262 240.316 96.015C238.478 100.904 235.563 105.344 231.778 109.025C227.991 112.705 223.424 115.538 218.395 117.325C213.365 119.112 207.995 119.81 202.66 119.371L202.812 119.528C198.278 119.084 193.697 119.625 189.405 121.112C185.112 122.598 181.211 124.995 177.988 128.126C174.764 131.258 172.296 135.048 170.763 139.22C169.23 143.392 168.67 147.842 169.124 152.252L168.971 152.103C169.42 157.289 168.699 162.508 166.86 167.396C165.02 172.283 162.107 176.721 158.321 180.402C154.535 184.082 149.969 186.914 144.941 188.703C139.913 190.49 134.544 191.192 129.209 190.755L129.362 190.903C122.979 190.32 116.567 191.666 111 194.755C105.433 197.846 100.982 202.53 98.2542 208.169C95.5264 213.809 94.6546 220.129 95.7577 226.268C96.8609 232.407 99.8854 238.065 104.418 242.471C108.951 246.878 114.772 249.818 121.087 250.89C127.403 251.962 133.904 251.115 139.706 248.463C145.507 245.812 150.326 241.486 153.504 236.074C156.683 230.662 158.068 224.429 157.468 218.224L157.629 218.372C157.178 213.186 157.898 207.967 159.737 203.079C161.575 198.191 164.49 193.751 168.276 190.071C172.062 186.391 176.629 183.557 181.657 181.771C186.686 179.982 192.055 179.283 197.391 179.721ZM259.882 136.367C256.67 139.507 254.212 143.296 252.681 147.465C251.149 151.633 250.583 156.079 251.021 160.486L250.868 160.338C251.319 165.524 250.599 170.743 248.76 175.631C246.921 180.52 244.007 184.959 240.222 188.639C236.435 192.319 231.868 195.153 226.84 196.939C221.811 198.728 216.441 199.427 211.107 198.989L211.258 199.137C204.877 198.561 198.467 199.91 192.903 203.004C187.338 206.097 182.892 210.784 180.168 216.423C177.445 222.064 176.577 228.383 177.683 234.521C178.79 240.658 181.817 246.315 186.351 250.718C190.886 255.122 196.707 258.059 203.021 259.128C209.336 260.199 215.835 259.349 221.636 256.697C227.436 254.044 232.252 249.718 235.429 244.306C238.607 238.894 239.99 232.662 239.391 226.459L239.551 226.608C239.101 221.421 239.82 216.202 241.659 211.313C243.498 206.425 246.413 201.986 250.198 198.305C253.985 194.625 258.551 191.791 263.579 190.005C268.609 188.217 273.978 187.517 279.313 187.955L279.152 187.807C284.365 188.262 289.613 187.431 294.408 185.391C299.203 183.35 303.39 180.167 306.583 176.134C309.774 172.101 311.868 167.351 312.667 162.323C313.469 157.294 312.95 152.151 311.161 147.368C309.372 142.587 306.37 138.321 302.434 134.967C298.497 131.613 293.754 129.28 288.642 128.184C283.53 127.086 278.218 127.261 273.194 128.691C268.171 130.122 263.6 132.762 259.907 136.367H259.882Z" stroke="url(#paint2_linear_3528_357)" stroke-opacity="0.15" stroke-width="2.6935" stroke-dasharray="2.69 2.69" mask="url(#path-1-outside-1_3528_357)"/>
<path d="M131.883 221.183C129.138 221.183 126.913 223.408 126.913 226.153C126.913 228.898 129.138 231.123 131.883 231.123C134.628 231.123 136.853 228.898 136.853 226.153C136.853 223.408 134.628 221.183 131.883 221.183ZM118.97 221.183C116.225 221.183 114 223.408 114 226.153C114 228.898 116.225 231.123 118.97 231.123C121.715 231.123 123.94 228.898 123.94 226.153C123.94 223.408 121.715 221.183 118.97 221.183ZM130.396 214.97C130.396 217.715 128.171 219.94 125.426 219.94C122.681 219.94 120.456 217.715 120.456 214.97C120.456 212.225 122.681 210 125.426 210C128.171 210 130.396 212.225 130.396 214.97" fill="#F06A6A"/>
<mask id="mask0_3528_357" style="mask-type:luminance" maskUnits="userSpaceOnUse" x="180" y="59" width="22" height="22">
<path d="M180 59H202V81H180V59Z" fill="white"/>
</mask>
<g mask="url(#mask0_3528_357)">
<path fill-rule="evenodd" clip-rule="evenodd" d="M202 70C202 76.0748 197.075 81 191 81C184.925 81 180 76.0748 180 70C180 63.9253 184.925 59 191 59C197.075 59 202 63.9253 202 70ZM185.5 73.85H193.75V67.8C193.75 67.5833 193.707 67.3688 193.624 67.1686C193.541 66.9684 193.42 66.7865 193.267 66.6333C193.114 66.4801 192.932 66.3585 192.731 66.2756C192.531 66.1927 192.317 66.15 192.1 66.15H183.85V72.2C183.85 72.6376 184.024 73.0573 184.333 73.3667C184.486 73.5199 184.668 73.6415 184.869 73.7244C185.069 73.8073 185.283 73.85 185.5 73.85ZM194.85 71.65L198.15 73.85V66.15L194.85 68.35V71.65Z" fill="#3B82F6"/>
</g>
<path d="M197.702 227.818L210.182 240.298C210.364 240.48 210.276 240.789 210.023 240.836C209.596 240.916 209.165 240.971 208.732 240.999C208.686 241.002 208.639 240.995 208.596 240.979C208.553 240.962 208.514 240.937 208.481 240.904L197.096 229.519C197.063 229.486 197.038 229.447 197.021 229.404C197.005 229.361 196.998 229.314 197.001 229.268C197.03 228.83 197.085 228.399 197.164 227.977C197.211 227.724 197.52 227.636 197.702 227.818ZM197.351 232.871C197.267 232.561 197.634 232.365 197.862 232.592L205.408 240.138C205.635 240.366 205.439 240.732 205.129 240.649C201.345 239.635 198.365 236.655 197.351 232.871ZM198.444 224.514C198.55 224.331 198.801 224.302 198.951 224.452L213.548 239.049C213.698 239.199 213.67 239.45 213.486 239.555C213.176 239.734 212.858 239.898 212.532 240.046C212.409 240.102 212.265 240.073 212.169 239.978L198.022 225.831C197.927 225.735 197.898 225.591 197.954 225.468C198.102 225.142 198.266 224.824 198.444 224.514M207.988 219C214.07 219 219 223.93 219 230.012C219 233.241 217.611 236.145 215.397 238.159C215.269 238.275 215.073 238.268 214.951 238.145L199.855 223.049C199.732 222.927 199.725 222.731 199.841 222.603C201.855 220.389 204.759 219 207.988 219Z" fill="#6366F1"/>
<path d="M124.79 136.211H113.211V147.79H124.79V136.211Z" fill="white"/>
<path d="M124.789 153.001L130 147.79L127.394 147.346L124.789 147.79L124.313 150.173L124.789 153.001Z" fill="#EA4335"/>
<path d="M108 147.79V151.264C108 152.224 108.777 153.001 109.737 153.001H113.211L113.746 150.395L113.211 147.79L110.372 147.346L108 147.79Z" fill="#188038"/>
<path d="M130 136.211V132.737C130 131.777 129.222 131 128.263 131H124.789C124.472 132.292 124.314 133.243 124.313 133.853C124.313 134.462 124.472 135.248 124.789 136.211C125.941 136.541 126.81 136.706 127.394 136.706C127.979 136.706 128.847 136.541 130 136.211Z" fill="#1967D2"/>
<path d="M130 136.211H124.789V147.79H130V136.211Z" fill="#FBBC04"/>
<path d="M124.79 147.789H113.211V153H124.79V147.789Z" fill="#34A853"/>
<path d="M124.789 131H109.737C108.777 131 108 131.777 108 132.737V147.789H113.211V136.211H124.789V131Z" fill="#4285F4"/>
<path d="M115.585 145.193C115.153 144.901 114.853 144.474 114.689 143.909L115.694 143.495C115.785 143.843 115.944 144.112 116.172 144.303C116.397 144.494 116.672 144.588 116.994 144.588C117.322 144.588 117.604 144.488 117.84 144.288C118.076 144.089 118.195 143.834 118.195 143.526C118.195 143.21 118.071 142.953 117.822 142.753C117.573 142.553 117.26 142.453 116.887 142.453H116.306V141.459H116.827C117.149 141.459 117.419 141.372 117.639 141.198C117.859 141.025 117.969 140.787 117.969 140.485C117.969 140.216 117.871 140.001 117.674 139.841C117.477 139.68 117.228 139.599 116.926 139.599C116.63 139.599 116.396 139.677 116.222 139.835C116.049 139.993 115.918 140.193 115.843 140.415L114.849 140.001C114.98 139.628 115.222 139.298 115.577 139.013C115.931 138.728 116.384 138.584 116.934 138.584C117.341 138.584 117.707 138.663 118.031 138.82C118.356 138.978 118.61 139.197 118.794 139.475C118.978 139.754 119.069 140.067 119.069 140.414C119.069 140.768 118.984 141.068 118.813 141.314C118.642 141.56 118.432 141.748 118.183 141.88V141.939C118.505 142.072 118.784 142.29 118.991 142.569C119.201 142.851 119.307 143.188 119.307 143.582C119.307 143.976 119.207 144.328 119.007 144.636C118.807 144.944 118.531 145.187 118.18 145.364C117.829 145.541 117.434 145.63 116.995 145.63C116.487 145.632 116.018 145.486 115.585 145.193ZM121.755 140.208L120.653 141.006L120.101 140.169L122.08 138.742H122.838V145.474H121.755V140.208Z" fill="#4285F4"/>
<path d="M287.844 148H276.156C273.309 148 271 150.309 271 153.156V164.844C271 167.691 273.309 170 276.156 170H287.844C290.691 170 293 167.691 293 164.844V153.156C293 150.309 290.691 148 287.844 148Z" fill="#5865F2"/>
<mask id="mask1_3528_357" style="mask-type:luminance" maskUnits="userSpaceOnUse" x="273" y="152" width="18" height="14">
<path d="M273.406 152.383H290.594V165.697H273.406V152.383Z" fill="white"/>
</mask>
<g mask="url(#mask1_3528_357)">
<path d="M287.956 153.568C286.842 153.057 285.666 152.692 284.458 152.483C284.447 152.481 284.435 152.483 284.425 152.488C284.415 152.492 284.407 152.5 284.401 152.51C284.25 152.779 284.083 153.129 283.966 153.405C282.645 153.207 281.33 153.207 280.037 153.405C279.919 153.123 279.746 152.779 279.594 152.51C279.589 152.5 279.58 152.493 279.57 152.488C279.56 152.483 279.549 152.482 279.538 152.483C278.33 152.692 277.154 153.057 276.039 153.568C276.03 153.573 276.022 153.579 276.016 153.588C273.788 156.917 273.178 160.164 273.477 163.371C273.479 163.387 273.487 163.401 273.5 163.411C274.97 164.491 276.394 165.146 277.791 165.581C277.802 165.584 277.814 165.584 277.825 165.58C277.835 165.577 277.845 165.57 277.852 165.561C278.182 165.109 278.477 164.633 278.73 164.133C278.733 164.126 278.735 164.118 278.736 164.111C278.736 164.103 278.735 164.095 278.732 164.088C278.729 164.081 278.725 164.075 278.719 164.069C278.714 164.064 278.707 164.06 278.7 164.057C278.232 163.88 277.787 163.664 277.359 163.418C277.351 163.413 277.345 163.407 277.34 163.399C277.335 163.392 277.333 163.383 277.332 163.374C277.332 163.365 277.333 163.356 277.337 163.347C277.341 163.339 277.347 163.332 277.354 163.327C277.444 163.259 277.533 163.19 277.62 163.118C277.628 163.112 277.637 163.108 277.647 163.106C277.656 163.105 277.666 163.106 277.675 163.11C280.488 164.395 283.534 164.395 286.313 163.11C286.322 163.106 286.332 163.105 286.342 163.106C286.352 163.107 286.362 163.111 286.37 163.117C286.457 163.189 286.546 163.259 286.636 163.327C286.644 163.332 286.649 163.339 286.653 163.347C286.657 163.356 286.659 163.365 286.658 163.374C286.658 163.383 286.655 163.391 286.651 163.399C286.646 163.407 286.639 163.413 286.632 163.418C286.203 163.668 285.755 163.882 285.29 164.056C285.283 164.059 285.277 164.063 285.271 164.069C285.266 164.074 285.261 164.081 285.259 164.088C285.256 164.095 285.255 164.103 285.255 164.111C285.256 164.118 285.258 164.126 285.261 164.133C285.518 164.629 285.811 165.107 286.138 165.56C286.145 165.569 286.155 165.576 286.165 165.58C286.176 165.584 286.188 165.584 286.199 165.581C287.603 165.146 289.027 164.491 290.497 163.411C290.504 163.407 290.509 163.401 290.513 163.394C290.517 163.387 290.519 163.379 290.52 163.372C290.878 159.664 289.919 156.444 287.978 153.589C287.974 153.58 287.966 153.572 287.956 153.568ZM279.15 161.418C278.303 161.418 277.605 160.641 277.605 159.686C277.605 158.731 278.289 157.954 279.15 157.954C280.017 157.954 280.708 158.738 280.694 159.686C280.694 160.641 280.01 161.418 279.15 161.418ZM284.861 161.418C284.014 161.418 283.316 160.641 283.316 159.686C283.316 158.731 284 157.954 284.861 157.954C285.728 157.954 286.419 158.738 286.405 159.686C286.405 160.641 285.728 161.418 284.861 161.418Z" fill="white"/>
</g>
<path d="M266.685 80.8733C266.685 82.1332 265.657 83.1622 264.397 83.1622C263.137 83.1622 262.108 82.1332 262.108 80.8733C262.108 79.6135 263.137 78.5845 264.397 78.5845H266.685L266.685 80.8733ZM267.838 80.8733C267.838 79.6135 268.867 78.5845 270.127 78.5845C271.386 78.5845 272.415 79.6133 272.415 80.8733V86.6028C272.415 87.8626 271.387 88.8916 270.127 88.8916C268.867 88.8916 267.838 87.8626 267.838 86.6028V80.8733Z" fill="#DE1C59"/>
<path d="M270.127 71.6851C268.867 71.6851 267.838 70.6576 267.838 69.3976C267.838 68.1376 268.867 67.1089 270.127 67.1089C271.386 67.1089 272.415 68.1379 272.415 69.3977V71.6852L270.127 71.6851ZM270.127 72.8382C271.386 72.8382 272.415 73.8672 272.415 75.127C272.415 76.3869 271.387 77.4159 270.127 77.4159H264.397C263.137 77.4159 262.108 76.387 262.108 75.127C262.108 73.8672 263.137 72.8382 264.397 72.8382H270.127Z" fill="#35C5F0"/>
<path d="M279.315 75.127C279.315 73.8672 280.342 72.8382 281.602 72.8382C282.862 72.8382 283.891 73.8672 283.891 75.127C283.891 76.3869 282.862 77.4159 281.602 77.4159H279.315V75.127ZM278.162 75.127C278.162 76.3869 277.133 77.4159 275.873 77.4159C274.613 77.4159 273.584 76.387 273.584 75.127V69.3976C273.584 68.1377 274.613 67.1089 275.873 67.1089C277.133 67.1089 278.162 68.1379 278.162 69.3977V75.127Z" fill="#2EB57D"/>
<path d="M275.873 84.3153C277.133 84.3153 278.162 85.3428 278.162 86.6028C278.162 87.8628 277.133 88.8916 275.873 88.8916C274.613 88.8916 273.584 87.8626 273.584 86.6028V84.3153H275.873ZM275.873 83.1622C274.613 83.1622 273.584 82.1332 273.584 80.8733C273.584 79.6135 274.613 78.5845 275.873 78.5845H281.602C282.862 78.5845 283.891 79.6133 283.891 80.8733C283.891 82.1332 282.862 83.1622 281.602 83.1622H275.873Z" fill="#EBB02E"/>
<path d="M201.699 149.963L204.06 152.662L207.235 154.691L207.787 149.98L207.235 145.376L203.999 147.159L201.699 149.963Z" fill="#00832D"/>
<path d="M188 154.253V158.266C188 159.183 188.744 159.927 189.661 159.927H193.674L194.505 156.894L193.674 154.253L190.921 153.421L188 154.253Z" fill="#0066DA"/>
<path d="M193.674 140L188 145.674L190.921 146.504L193.674 145.674L194.49 143.069L193.674 140Z" fill="#E94235"/>
<path d="M188 154.254H193.674V145.675H188V154.254Z" fill="#2684FC"/>
<path d="M210.86 142.403L207.235 145.377V154.691L210.875 157.676C211.42 158.103 212.217 157.714 212.217 157.021V143.044C212.217 142.344 211.401 141.957 210.86 142.403" fill="#00AC47"/>
<path d="M201.699 149.963V154.252H193.674V159.927H205.575C206.491 159.927 207.235 159.183 207.235 158.266V154.691L201.699 149.963Z" fill="#00AC47"/>
<path d="M205.575 140H193.674V145.674H201.699V149.963L207.235 145.376V141.661C207.235 140.744 206.491 140 205.575 140" fill="#FFBA00"/>
<defs>
<radialGradient id="paint0_radial_3528_357" cx="0" cy="0" r="1" gradientUnits="userSpaceOnUse" gradientTransform="translate(200 150) rotate(90) scale(150 200)">
<stop stop-color="#EFF6FF"/>
<stop offset="1" stop-color="white"/>
</radialGradient>
<radialGradient id="paint1_radial_3528_357" cx="0" cy="0" r="1" gradientUnits="userSpaceOnUse" gradientTransform="translate(200.271 149.789) rotate(90) scale(109.789 112.762)">
<stop stop-color="white"/>
<stop offset="1" stop-color="white" stop-opacity="0"/>
</radialGradient>
<linearGradient id="paint2_linear_3528_357" x1="87.5088" y1="40" x2="307.009" y2="265.444" gradientUnits="userSpaceOnUse">
<stop stop-color="#3C8CE7"/>
<stop offset="1" stop-color="#00EAFF"/>
</linearGradient>
</defs>
</svg>
