<svg width="400" height="300" viewBox="0 0 400 300" fill="none" xmlns="http://www.w3.org/2000/svg" xmlns:xlink="http://www.w3.org/1999/xlink">
<g clip-path="url(#clip0_3503_480)">
<rect width="400" height="300" fill="url(#paint0_radial_3503_480)"/>
<rect width="400" height="290" transform="translate(0 63)" fill="url(#pattern0_3503_480)"/>
<rect x="40.5" y="63.5" width="149" height="97" rx="3.5" fill="#E0F2FE"/>
<rect x="40.5" y="63.5" width="149" height="97" rx="3.5" stroke="#BAE6FD"/>
<path d="M48.6445 76V70.1797H49.957L51.2266 73.5195C51.263 73.6185 51.3034 73.7435 51.3477 73.8945C51.3945 74.0456 51.4427 74.2096 51.4922 74.3867C51.5417 74.5638 51.5885 74.7383 51.6328 74.9102C51.6771 75.082 51.7161 75.237 51.75 75.375H51.5625C51.5964 75.2448 51.6354 75.0951 51.6797 74.9258C51.724 74.7539 51.7708 74.5794 51.8203 74.4023C51.8698 74.2253 51.918 74.0586 51.9648 73.9023C52.0117 73.7461 52.0534 73.6185 52.0898 73.5195L53.3398 70.1797H54.6602V76H53.7734V72.8672C53.7734 72.7474 53.7747 72.6042 53.7773 72.4375C53.7799 72.2708 53.7826 72.0951 53.7852 71.9102C53.7904 71.7227 53.7943 71.5339 53.7969 71.3438C53.8021 71.1536 53.806 70.9714 53.8086 70.7969H53.875C53.8229 70.987 53.7656 71.1836 53.7031 71.3867C53.6432 71.5872 53.5833 71.7812 53.5234 71.9688C53.4661 72.1562 53.4102 72.3281 53.3555 72.4844C53.3034 72.638 53.2591 72.7656 53.2227 72.8672L52.0312 76H51.2695L50.0625 72.8672C50.0234 72.7682 49.9779 72.6432 49.9258 72.4922C49.8763 72.3385 49.8216 72.1693 49.7617 71.9844C49.7018 71.7969 49.6406 71.6029 49.5781 71.4023C49.5156 71.1992 49.4531 70.9974 49.3906 70.7969H49.4688C49.474 70.9557 49.4779 71.1289 49.4805 71.3164C49.4857 71.5013 49.4896 71.6888 49.4922 71.8789C49.4974 72.069 49.5013 72.25 49.5039 72.4219C49.5091 72.5911 49.5117 72.7396 49.5117 72.8672V76H48.6445ZM57.7656 76.0898C57.3359 76.0898 56.9648 75.9974 56.6523 75.8125C56.3398 75.6276 56.099 75.3672 55.9297 75.0312C55.763 74.6953 55.6797 74.3008 55.6797 73.8477C55.6797 73.3997 55.7617 73.0052 55.9258 72.6641C56.0924 72.3229 56.3268 72.0573 56.6289 71.8672C56.931 71.6745 57.2852 71.5781 57.6914 71.5781C57.9414 71.5781 58.1823 71.6198 58.4141 71.7031C58.6458 71.7839 58.8542 71.9115 59.0391 72.0859C59.224 72.2604 59.3698 72.487 59.4766 72.7656C59.5859 73.0417 59.6406 73.3776 59.6406 73.7734V74.0781H56.1602V73.4375H59.1992L58.7969 73.6484C58.7969 73.3802 58.7552 73.1445 58.6719 72.9414C58.5885 72.7357 58.4648 72.5755 58.3008 72.4609C58.1393 72.3464 57.9362 72.2891 57.6914 72.2891C57.4492 72.2891 57.2422 72.3477 57.0703 72.4648C56.8984 72.582 56.7669 72.737 56.6758 72.9297C56.5872 73.1198 56.543 73.3281 56.543 73.5547V73.9922C56.543 74.2917 56.5938 74.5456 56.6953 74.7539C56.7995 74.9596 56.944 75.1159 57.1289 75.2227C57.3138 75.3268 57.5286 75.3789 57.7734 75.3789C57.9349 75.3789 58.0807 75.3568 58.2109 75.3125C58.3411 75.2656 58.4531 75.1966 58.5469 75.1055C58.6432 75.0117 58.7161 74.8971 58.7656 74.7617L59.5742 74.9531C59.5039 75.1771 59.3854 75.375 59.2188 75.5469C59.0547 75.7188 58.849 75.8529 58.6016 75.9492C58.3568 76.043 58.0781 76.0898 57.7656 76.0898ZM62.4688 76.0898C62.0391 76.0898 61.668 75.9974 61.3555 75.8125C61.043 75.6276 60.8021 75.3672 60.6328 75.0312C60.4661 74.6953 60.3828 74.3008 60.3828 73.8477C60.3828 73.3997 60.4648 73.0052 60.6289 72.6641C60.7956 72.3229 61.0299 72.0573 61.332 71.8672C61.6341 71.6745 61.9883 71.5781 62.3945 71.5781C62.6445 71.5781 62.8854 71.6198 63.1172 71.7031C63.349 71.7839 63.5573 71.9115 63.7422 72.0859C63.9271 72.2604 64.0729 72.487 64.1797 72.7656C64.2891 73.0417 64.3438 73.3776 64.3438 73.7734V74.0781H60.8633V73.4375H63.9023L63.5 73.6484C63.5 73.3802 63.4583 73.1445 63.375 72.9414C63.2917 72.7357 63.168 72.5755 63.0039 72.4609C62.8424 72.3464 62.6393 72.2891 62.3945 72.2891C62.1523 72.2891 61.9453 72.3477 61.7734 72.4648C61.6016 72.582 61.4701 72.737 61.3789 72.9297C61.2904 73.1198 61.2461 73.3281 61.2461 73.5547V73.9922C61.2461 74.2917 61.2969 74.5456 61.3984 74.7539C61.5026 74.9596 61.6471 75.1159 61.832 75.2227C62.0169 75.3268 62.2318 75.3789 62.4766 75.3789C62.638 75.3789 62.7839 75.3568 62.9141 75.3125C63.0443 75.2656 63.1562 75.1966 63.25 75.1055C63.3464 75.0117 63.4193 74.8971 63.4688 74.7617L64.2773 74.9531C64.207 75.1771 64.0885 75.375 63.9219 75.5469C63.7578 75.7188 63.5521 75.8529 63.3047 75.9492C63.0599 76.043 62.7812 76.0898 62.4688 76.0898ZM67.1562 71.6328V72.332H64.7891V71.6328H67.1562ZM65.4258 70.5938H66.2852V74.8203C66.2852 74.9948 66.3216 75.1237 66.3945 75.207C66.4701 75.2878 66.5924 75.3281 66.7617 75.3281C66.806 75.3281 66.8646 75.3229 66.9375 75.3125C67.0104 75.3021 67.0729 75.2917 67.125 75.2812L67.2773 75.9688C67.1862 76 67.0885 76.0221 66.9844 76.0352C66.8802 76.0508 66.7773 76.0586 66.6758 76.0586C66.2799 76.0586 65.9727 75.957 65.7539 75.7539C65.5352 75.5482 65.4258 75.2604 65.4258 74.8906V70.5938ZM68.0156 76V71.6328H68.875V76H68.0156ZM68.4492 70.9648C68.3008 70.9648 68.1732 70.9154 68.0664 70.8164C67.9622 70.7174 67.9102 70.5977 67.9102 70.457C67.9102 70.3138 67.9622 70.1927 68.0664 70.0938C68.1732 69.9948 68.3008 69.9453 68.4492 69.9453C68.5977 69.9453 68.7253 69.9948 68.832 70.0938C68.9388 70.1927 68.9922 70.3138 68.9922 70.457C68.9922 70.5977 68.9388 70.7174 68.832 70.8164C68.7253 70.9154 68.5977 70.9648 68.4492 70.9648ZM70.8906 73.4141V76H70.0312V71.6328H70.8516L70.8594 72.7031H70.7695C70.8971 72.3125 71.082 72.0273 71.3242 71.8477C71.5664 71.668 71.8594 71.5781 72.2031 71.5781C72.5 71.5781 72.7591 71.6406 72.9805 71.7656C73.2018 71.8906 73.375 72.0755 73.5 72.3203C73.625 72.5625 73.6875 72.8646 73.6875 73.2266V76H72.8281V73.332C72.8281 73.0169 72.7461 72.7708 72.582 72.5938C72.418 72.4167 72.1927 72.3281 71.9062 72.3281C71.7135 72.3281 71.5404 72.3711 71.3867 72.457C71.2331 72.5404 71.112 72.6628 71.0234 72.8242C70.9349 72.9857 70.8906 73.1823 70.8906 73.4141ZM76.668 77.7266C76.332 77.7266 76.0404 77.6836 75.793 77.5977C75.5456 77.5117 75.3411 77.3971 75.1797 77.2539C75.0208 77.1107 74.8997 76.9518 74.8164 76.7773L75.5352 76.4375C75.5872 76.5208 75.6562 76.6081 75.7422 76.6992C75.8307 76.793 75.9492 76.8724 76.0977 76.9375C76.2461 77.0026 76.4362 77.0352 76.668 77.0352C77.0013 77.0352 77.2708 76.9557 77.4766 76.7969C77.6849 76.6406 77.7891 76.3945 77.7891 76.0586V75.207H77.7148C77.6628 75.3034 77.5898 75.4076 77.4961 75.5195C77.4049 75.6315 77.276 75.7292 77.1094 75.8125C76.9453 75.8932 76.7305 75.9336 76.4648 75.9336C76.1211 75.9336 75.8112 75.8529 75.5352 75.6914C75.2617 75.5299 75.0443 75.2904 74.8828 74.9727C74.7214 74.6549 74.6406 74.2643 74.6406 73.8008C74.6406 73.3372 74.7201 72.9401 74.8789 72.6094C75.0404 72.276 75.2591 72.0208 75.5352 71.8438C75.8138 71.6667 76.1276 71.5781 76.4766 71.5781C76.7448 71.5781 76.9622 71.6224 77.1289 71.7109C77.2982 71.7995 77.4297 71.9049 77.5234 72.0273C77.6198 72.1471 77.6927 72.2526 77.7422 72.3438H77.8047V71.6328H78.6445V76.0625C78.6445 76.4453 78.5573 76.7591 78.3828 77.0039C78.2109 77.2513 77.9753 77.4336 77.6758 77.5508C77.3789 77.668 77.043 77.7266 76.668 77.7266ZM76.6641 75.2188C76.9089 75.2188 77.1146 75.1628 77.2812 75.0508C77.4505 74.9362 77.5781 74.7721 77.6641 74.5586C77.75 74.3424 77.793 74.0859 77.793 73.7891C77.793 73.4948 77.75 73.237 77.6641 73.0156C77.5781 72.7943 77.4505 72.6211 77.2812 72.4961C77.1146 72.3711 76.9089 72.3086 76.6641 72.3086C76.4115 72.3086 76.2005 72.375 76.0312 72.5078C75.862 72.638 75.7344 72.8151 75.6484 73.0391C75.5625 73.2604 75.5195 73.5104 75.5195 73.7891C75.5195 74.0729 75.5625 74.3229 75.6484 74.5391C75.7344 74.7526 75.862 74.9193 76.0312 75.0391C76.2031 75.1589 76.4141 75.2188 76.6641 75.2188Z" fill="#475569"/>
<rect x="40.5" y="171.5" width="149" height="25" rx="3.5" fill="#E0F2FE"/>
<rect x="40.5" y="171.5" width="149" height="25" rx="3.5" stroke="#BAE6FD"/>
<path d="M48.6445 184V178.18H49.957L51.2266 181.52C51.263 181.618 51.3034 181.743 51.3477 181.895C51.3945 182.046 51.4427 182.21 51.4922 182.387C51.5417 182.564 51.5885 182.738 51.6328 182.91C51.6771 183.082 51.7161 183.237 51.75 183.375H51.5625C51.5964 183.245 51.6354 183.095 51.6797 182.926C51.724 182.754 51.7708 182.579 51.8203 182.402C51.8698 182.225 51.918 182.059 51.9648 181.902C52.0117 181.746 52.0534 181.618 52.0898 181.52L53.3398 178.18H54.6602V184H53.7734V180.867C53.7734 180.747 53.7747 180.604 53.7773 180.438C53.7799 180.271 53.7826 180.095 53.7852 179.91C53.7904 179.723 53.7943 179.534 53.7969 179.344C53.8021 179.154 53.806 178.971 53.8086 178.797H53.875C53.8229 178.987 53.7656 179.184 53.7031 179.387C53.6432 179.587 53.5833 179.781 53.5234 179.969C53.4661 180.156 53.4102 180.328 53.3555 180.484C53.3034 180.638 53.2591 180.766 53.2227 180.867L52.0312 184H51.2695L50.0625 180.867C50.0234 180.768 49.9779 180.643 49.9258 180.492C49.8763 180.339 49.8216 180.169 49.7617 179.984C49.7018 179.797 49.6406 179.603 49.5781 179.402C49.5156 179.199 49.4531 178.997 49.3906 178.797H49.4688C49.474 178.956 49.4779 179.129 49.4805 179.316C49.4857 179.501 49.4896 179.689 49.4922 179.879C49.4974 180.069 49.5013 180.25 49.5039 180.422C49.5091 180.591 49.5117 180.74 49.5117 180.867V184H48.6445ZM57.7656 184.09C57.3359 184.09 56.9648 183.997 56.6523 183.812C56.3398 183.628 56.099 183.367 55.9297 183.031C55.763 182.695 55.6797 182.301 55.6797 181.848C55.6797 181.4 55.7617 181.005 55.9258 180.664C56.0924 180.323 56.3268 180.057 56.6289 179.867C56.931 179.674 57.2852 179.578 57.6914 179.578C57.9414 179.578 58.1823 179.62 58.4141 179.703C58.6458 179.784 58.8542 179.911 59.0391 180.086C59.224 180.26 59.3698 180.487 59.4766 180.766C59.5859 181.042 59.6406 181.378 59.6406 181.773V182.078H56.1602V181.438H59.1992L58.7969 181.648C58.7969 181.38 58.7552 181.145 58.6719 180.941C58.5885 180.736 58.4648 180.576 58.3008 180.461C58.1393 180.346 57.9362 180.289 57.6914 180.289C57.4492 180.289 57.2422 180.348 57.0703 180.465C56.8984 180.582 56.7669 180.737 56.6758 180.93C56.5872 181.12 56.543 181.328 56.543 181.555V181.992C56.543 182.292 56.5938 182.546 56.6953 182.754C56.7995 182.96 56.944 183.116 57.1289 183.223C57.3138 183.327 57.5286 183.379 57.7734 183.379C57.9349 183.379 58.0807 183.357 58.2109 183.312C58.3411 183.266 58.4531 183.197 58.5469 183.105C58.6432 183.012 58.7161 182.897 58.7656 182.762L59.5742 182.953C59.5039 183.177 59.3854 183.375 59.2188 183.547C59.0547 183.719 58.849 183.853 58.6016 183.949C58.3568 184.043 58.0781 184.09 57.7656 184.09ZM62.4688 184.09C62.0391 184.09 61.668 183.997 61.3555 183.812C61.043 183.628 60.8021 183.367 60.6328 183.031C60.4661 182.695 60.3828 182.301 60.3828 181.848C60.3828 181.4 60.4648 181.005 60.6289 180.664C60.7956 180.323 61.0299 180.057 61.332 179.867C61.6341 179.674 61.9883 179.578 62.3945 179.578C62.6445 179.578 62.8854 179.62 63.1172 179.703C63.349 179.784 63.5573 179.911 63.7422 180.086C63.9271 180.26 64.0729 180.487 64.1797 180.766C64.2891 181.042 64.3438 181.378 64.3438 181.773V182.078H60.8633V181.438H63.9023L63.5 181.648C63.5 181.38 63.4583 181.145 63.375 180.941C63.2917 180.736 63.168 180.576 63.0039 180.461C62.8424 180.346 62.6393 180.289 62.3945 180.289C62.1523 180.289 61.9453 180.348 61.7734 180.465C61.6016 180.582 61.4701 180.737 61.3789 180.93C61.2904 181.12 61.2461 181.328 61.2461 181.555V181.992C61.2461 182.292 61.2969 182.546 61.3984 182.754C61.5026 182.96 61.6471 183.116 61.832 183.223C62.0169 183.327 62.2318 183.379 62.4766 183.379C62.638 183.379 62.7839 183.357 62.9141 183.312C63.0443 183.266 63.1562 183.197 63.25 183.105C63.3464 183.012 63.4193 182.897 63.4688 182.762L64.2773 182.953C64.207 183.177 64.0885 183.375 63.9219 183.547C63.7578 183.719 63.5521 183.853 63.3047 183.949C63.0599 184.043 62.7812 184.09 62.4688 184.09ZM67.1562 179.633V180.332H64.7891V179.633H67.1562ZM65.4258 178.594H66.2852V182.82C66.2852 182.995 66.3216 183.124 66.3945 183.207C66.4701 183.288 66.5924 183.328 66.7617 183.328C66.806 183.328 66.8646 183.323 66.9375 183.312C67.0104 183.302 67.0729 183.292 67.125 183.281L67.2773 183.969C67.1862 184 67.0885 184.022 66.9844 184.035C66.8802 184.051 66.7773 184.059 66.6758 184.059C66.2799 184.059 65.9727 183.957 65.7539 183.754C65.5352 183.548 65.4258 183.26 65.4258 182.891V178.594ZM68.0156 184V179.633H68.875V184H68.0156ZM68.4492 178.965C68.3008 178.965 68.1732 178.915 68.0664 178.816C67.9622 178.717 67.9102 178.598 67.9102 178.457C67.9102 178.314 67.9622 178.193 68.0664 178.094C68.1732 177.995 68.3008 177.945 68.4492 177.945C68.5977 177.945 68.7253 177.995 68.832 178.094C68.9388 178.193 68.9922 178.314 68.9922 178.457C68.9922 178.598 68.9388 178.717 68.832 178.816C68.7253 178.915 68.5977 178.965 68.4492 178.965ZM70.8906 181.414V184H70.0312V179.633H70.8516L70.8594 180.703H70.7695C70.8971 180.312 71.082 180.027 71.3242 179.848C71.5664 179.668 71.8594 179.578 72.2031 179.578C72.5 179.578 72.7591 179.641 72.9805 179.766C73.2018 179.891 73.375 180.076 73.5 180.32C73.625 180.562 73.6875 180.865 73.6875 181.227V184H72.8281V181.332C72.8281 181.017 72.7461 180.771 72.582 180.594C72.418 180.417 72.1927 180.328 71.9062 180.328C71.7135 180.328 71.5404 180.371 71.3867 180.457C71.2331 180.54 71.112 180.663 71.0234 180.824C70.9349 180.986 70.8906 181.182 70.8906 181.414ZM76.668 185.727C76.332 185.727 76.0404 185.684 75.793 185.598C75.5456 185.512 75.3411 185.397 75.1797 185.254C75.0208 185.111 74.8997 184.952 74.8164 184.777L75.5352 184.438C75.5872 184.521 75.6562 184.608 75.7422 184.699C75.8307 184.793 75.9492 184.872 76.0977 184.938C76.2461 185.003 76.4362 185.035 76.668 185.035C77.0013 185.035 77.2708 184.956 77.4766 184.797C77.6849 184.641 77.7891 184.395 77.7891 184.059V183.207H77.7148C77.6628 183.303 77.5898 183.408 77.4961 183.52C77.4049 183.632 77.276 183.729 77.1094 183.812C76.9453 183.893 76.7305 183.934 76.4648 183.934C76.1211 183.934 75.8112 183.853 75.5352 183.691C75.2617 183.53 75.0443 183.29 74.8828 182.973C74.7214 182.655 74.6406 182.264 74.6406 181.801C74.6406 181.337 74.7201 180.94 74.8789 180.609C75.0404 180.276 75.2591 180.021 75.5352 179.844C75.8138 179.667 76.1276 179.578 76.4766 179.578C76.7448 179.578 76.9622 179.622 77.1289 179.711C77.2982 179.799 77.4297 179.905 77.5234 180.027C77.6198 180.147 77.6927 180.253 77.7422 180.344H77.8047V179.633H78.6445V184.062C78.6445 184.445 78.5573 184.759 78.3828 185.004C78.2109 185.251 77.9753 185.434 77.6758 185.551C77.3789 185.668 77.043 185.727 76.668 185.727ZM76.6641 183.219C76.9089 183.219 77.1146 183.163 77.2812 183.051C77.4505 182.936 77.5781 182.772 77.6641 182.559C77.75 182.342 77.793 182.086 77.793 181.789C77.793 181.495 77.75 181.237 77.6641 181.016C77.5781 180.794 77.4505 180.621 77.2812 180.496C77.1146 180.371 76.9089 180.309 76.6641 180.309C76.4115 180.309 76.2005 180.375 76.0312 180.508C75.862 180.638 75.7344 180.815 75.6484 181.039C75.5625 181.26 75.5195 181.51 75.5195 181.789C75.5195 182.073 75.5625 182.323 75.6484 182.539C75.7344 182.753 75.862 182.919 76.0312 183.039C76.2031 183.159 76.4141 183.219 76.6641 183.219Z" fill="#475569"/>
<rect x="40.5" y="207.5" width="149" height="63" rx="3.5" fill="#E0F2FE"/>
<rect x="40.5" y="207.5" width="149" height="63" rx="3.5" stroke="#BAE6FD"/>
<path d="M48.6445 220V214.18H49.957L51.2266 217.52C51.263 217.618 51.3034 217.743 51.3477 217.895C51.3945 218.046 51.4427 218.21 51.4922 218.387C51.5417 218.564 51.5885 218.738 51.6328 218.91C51.6771 219.082 51.7161 219.237 51.75 219.375H51.5625C51.5964 219.245 51.6354 219.095 51.6797 218.926C51.724 218.754 51.7708 218.579 51.8203 218.402C51.8698 218.225 51.918 218.059 51.9648 217.902C52.0117 217.746 52.0534 217.618 52.0898 217.52L53.3398 214.18H54.6602V220H53.7734V216.867C53.7734 216.747 53.7747 216.604 53.7773 216.438C53.7799 216.271 53.7826 216.095 53.7852 215.91C53.7904 215.723 53.7943 215.534 53.7969 215.344C53.8021 215.154 53.806 214.971 53.8086 214.797H53.875C53.8229 214.987 53.7656 215.184 53.7031 215.387C53.6432 215.587 53.5833 215.781 53.5234 215.969C53.4661 216.156 53.4102 216.328 53.3555 216.484C53.3034 216.638 53.2591 216.766 53.2227 216.867L52.0312 220H51.2695L50.0625 216.867C50.0234 216.768 49.9779 216.643 49.9258 216.492C49.8763 216.339 49.8216 216.169 49.7617 215.984C49.7018 215.797 49.6406 215.603 49.5781 215.402C49.5156 215.199 49.4531 214.997 49.3906 214.797H49.4688C49.474 214.956 49.4779 215.129 49.4805 215.316C49.4857 215.501 49.4896 215.689 49.4922 215.879C49.4974 216.069 49.5013 216.25 49.5039 216.422C49.5091 216.591 49.5117 216.74 49.5117 216.867V220H48.6445ZM57.7656 220.09C57.3359 220.09 56.9648 219.997 56.6523 219.812C56.3398 219.628 56.099 219.367 55.9297 219.031C55.763 218.695 55.6797 218.301 55.6797 217.848C55.6797 217.4 55.7617 217.005 55.9258 216.664C56.0924 216.323 56.3268 216.057 56.6289 215.867C56.931 215.674 57.2852 215.578 57.6914 215.578C57.9414 215.578 58.1823 215.62 58.4141 215.703C58.6458 215.784 58.8542 215.911 59.0391 216.086C59.224 216.26 59.3698 216.487 59.4766 216.766C59.5859 217.042 59.6406 217.378 59.6406 217.773V218.078H56.1602V217.438H59.1992L58.7969 217.648C58.7969 217.38 58.7552 217.145 58.6719 216.941C58.5885 216.736 58.4648 216.576 58.3008 216.461C58.1393 216.346 57.9362 216.289 57.6914 216.289C57.4492 216.289 57.2422 216.348 57.0703 216.465C56.8984 216.582 56.7669 216.737 56.6758 216.93C56.5872 217.12 56.543 217.328 56.543 217.555V217.992C56.543 218.292 56.5938 218.546 56.6953 218.754C56.7995 218.96 56.944 219.116 57.1289 219.223C57.3138 219.327 57.5286 219.379 57.7734 219.379C57.9349 219.379 58.0807 219.357 58.2109 219.312C58.3411 219.266 58.4531 219.197 58.5469 219.105C58.6432 219.012 58.7161 218.897 58.7656 218.762L59.5742 218.953C59.5039 219.177 59.3854 219.375 59.2188 219.547C59.0547 219.719 58.849 219.853 58.6016 219.949C58.3568 220.043 58.0781 220.09 57.7656 220.09ZM62.4688 220.09C62.0391 220.09 61.668 219.997 61.3555 219.812C61.043 219.628 60.8021 219.367 60.6328 219.031C60.4661 218.695 60.3828 218.301 60.3828 217.848C60.3828 217.4 60.4648 217.005 60.6289 216.664C60.7956 216.323 61.0299 216.057 61.332 215.867C61.6341 215.674 61.9883 215.578 62.3945 215.578C62.6445 215.578 62.8854 215.62 63.1172 215.703C63.349 215.784 63.5573 215.911 63.7422 216.086C63.9271 216.26 64.0729 216.487 64.1797 216.766C64.2891 217.042 64.3438 217.378 64.3438 217.773V218.078H60.8633V217.438H63.9023L63.5 217.648C63.5 217.38 63.4583 217.145 63.375 216.941C63.2917 216.736 63.168 216.576 63.0039 216.461C62.8424 216.346 62.6393 216.289 62.3945 216.289C62.1523 216.289 61.9453 216.348 61.7734 216.465C61.6016 216.582 61.4701 216.737 61.3789 216.93C61.2904 217.12 61.2461 217.328 61.2461 217.555V217.992C61.2461 218.292 61.2969 218.546 61.3984 218.754C61.5026 218.96 61.6471 219.116 61.832 219.223C62.0169 219.327 62.2318 219.379 62.4766 219.379C62.638 219.379 62.7839 219.357 62.9141 219.312C63.0443 219.266 63.1562 219.197 63.25 219.105C63.3464 219.012 63.4193 218.897 63.4688 218.762L64.2773 218.953C64.207 219.177 64.0885 219.375 63.9219 219.547C63.7578 219.719 63.5521 219.853 63.3047 219.949C63.0599 220.043 62.7812 220.09 62.4688 220.09ZM67.1562 215.633V216.332H64.7891V215.633H67.1562ZM65.4258 214.594H66.2852V218.82C66.2852 218.995 66.3216 219.124 66.3945 219.207C66.4701 219.288 66.5924 219.328 66.7617 219.328C66.806 219.328 66.8646 219.323 66.9375 219.312C67.0104 219.302 67.0729 219.292 67.125 219.281L67.2773 219.969C67.1862 220 67.0885 220.022 66.9844 220.035C66.8802 220.051 66.7773 220.059 66.6758 220.059C66.2799 220.059 65.9727 219.957 65.7539 219.754C65.5352 219.548 65.4258 219.26 65.4258 218.891V214.594ZM68.0156 220V215.633H68.875V220H68.0156ZM68.4492 214.965C68.3008 214.965 68.1732 214.915 68.0664 214.816C67.9622 214.717 67.9102 214.598 67.9102 214.457C67.9102 214.314 67.9622 214.193 68.0664 214.094C68.1732 213.995 68.3008 213.945 68.4492 213.945C68.5977 213.945 68.7253 213.995 68.832 214.094C68.9388 214.193 68.9922 214.314 68.9922 214.457C68.9922 214.598 68.9388 214.717 68.832 214.816C68.7253 214.915 68.5977 214.965 68.4492 214.965ZM70.8906 217.414V220H70.0312V215.633H70.8516L70.8594 216.703H70.7695C70.8971 216.312 71.082 216.027 71.3242 215.848C71.5664 215.668 71.8594 215.578 72.2031 215.578C72.5 215.578 72.7591 215.641 72.9805 215.766C73.2018 215.891 73.375 216.076 73.5 216.32C73.625 216.562 73.6875 216.865 73.6875 217.227V220H72.8281V217.332C72.8281 217.017 72.7461 216.771 72.582 216.594C72.418 216.417 72.1927 216.328 71.9062 216.328C71.7135 216.328 71.5404 216.371 71.3867 216.457C71.2331 216.54 71.112 216.663 71.0234 216.824C70.9349 216.986 70.8906 217.182 70.8906 217.414ZM76.668 221.727C76.332 221.727 76.0404 221.684 75.793 221.598C75.5456 221.512 75.3411 221.397 75.1797 221.254C75.0208 221.111 74.8997 220.952 74.8164 220.777L75.5352 220.438C75.5872 220.521 75.6562 220.608 75.7422 220.699C75.8307 220.793 75.9492 220.872 76.0977 220.938C76.2461 221.003 76.4362 221.035 76.668 221.035C77.0013 221.035 77.2708 220.956 77.4766 220.797C77.6849 220.641 77.7891 220.395 77.7891 220.059V219.207H77.7148C77.6628 219.303 77.5898 219.408 77.4961 219.52C77.4049 219.632 77.276 219.729 77.1094 219.812C76.9453 219.893 76.7305 219.934 76.4648 219.934C76.1211 219.934 75.8112 219.853 75.5352 219.691C75.2617 219.53 75.0443 219.29 74.8828 218.973C74.7214 218.655 74.6406 218.264 74.6406 217.801C74.6406 217.337 74.7201 216.94 74.8789 216.609C75.0404 216.276 75.2591 216.021 75.5352 215.844C75.8138 215.667 76.1276 215.578 76.4766 215.578C76.7448 215.578 76.9622 215.622 77.1289 215.711C77.2982 215.799 77.4297 215.905 77.5234 216.027C77.6198 216.147 77.6927 216.253 77.7422 216.344H77.8047V215.633H78.6445V220.062C78.6445 220.445 78.5573 220.759 78.3828 221.004C78.2109 221.251 77.9753 221.434 77.6758 221.551C77.3789 221.668 77.043 221.727 76.668 221.727ZM76.6641 219.219C76.9089 219.219 77.1146 219.163 77.2812 219.051C77.4505 218.936 77.5781 218.772 77.6641 218.559C77.75 218.342 77.793 218.086 77.793 217.789C77.793 217.495 77.75 217.237 77.6641 217.016C77.5781 216.794 77.4505 216.621 77.2812 216.496C77.1146 216.371 76.9089 216.309 76.6641 216.309C76.4115 216.309 76.2005 216.375 76.0312 216.508C75.862 216.638 75.7344 216.815 75.6484 217.039C75.5625 217.26 75.5195 217.51 75.5195 217.789C75.5195 218.073 75.5625 218.323 75.6484 218.539C75.7344 218.753 75.862 218.919 76.0312 219.039C76.2031 219.159 76.4141 219.219 76.6641 219.219Z" fill="#475569"/>
<rect x="210.5" y="63.5" width="149" height="97" rx="3.5" fill="white"/>
<rect x="210.5" y="63.5" width="149" height="97" rx="3.5" stroke="#E2E8F0"/>
<path d="M224.667 71L221 74.6667L219.333 73" stroke="black" stroke-width="0.666667" stroke-linecap="round" stroke-linejoin="round"/>
<path d="M230.645 76V70.1797H231.535V72.6406H234.418V70.1797H235.312V76H234.418V73.4062H231.535V76H230.645ZM237.762 76.0977C237.486 76.0977 237.236 76.0469 237.012 75.9453C236.788 75.8411 236.611 75.6901 236.48 75.4922C236.35 75.2943 236.285 75.0521 236.285 74.7656C236.285 74.5182 236.332 74.3151 236.426 74.1562C236.522 73.9974 236.651 73.8711 236.812 73.7773C236.977 73.6836 237.158 73.6133 237.355 73.5664C237.556 73.5195 237.759 73.4844 237.965 73.4609C238.223 73.4297 238.432 73.4049 238.594 73.3867C238.755 73.3659 238.874 73.3333 238.949 73.2891C239.027 73.2422 239.066 73.168 239.066 73.0664V73.043C239.066 72.8789 239.035 72.7409 238.973 72.6289C238.91 72.5169 238.816 72.431 238.691 72.3711C238.569 72.3086 238.415 72.2773 238.23 72.2773C238.04 72.2773 237.876 72.3073 237.738 72.3672C237.603 72.4245 237.492 72.4987 237.406 72.5898C237.323 72.681 237.26 72.776 237.219 72.875L236.41 72.6641C236.509 72.4036 236.651 72.194 236.836 72.0352C237.021 71.8763 237.233 71.7604 237.473 71.6875C237.712 71.6146 237.96 71.5781 238.215 71.5781C238.392 71.5781 238.579 71.599 238.777 71.6406C238.975 71.6823 239.161 71.7578 239.336 71.8672C239.51 71.9766 239.652 72.1302 239.762 72.3281C239.871 72.526 239.926 72.7839 239.926 73.1016V76H239.094V75.4023H239.051C238.993 75.5143 238.909 75.6237 238.797 75.7305C238.685 75.8372 238.543 75.9258 238.371 75.9961C238.202 76.0638 237.999 76.0977 237.762 76.0977ZM237.953 75.4062C238.188 75.4062 238.388 75.3607 238.555 75.2695C238.721 75.1784 238.849 75.0573 238.938 74.9062C239.026 74.7552 239.07 74.5951 239.07 74.4258V73.8672C239.039 73.8984 238.979 73.9271 238.891 73.9531C238.805 73.9766 238.706 73.9987 238.594 74.0195C238.482 74.0378 238.374 74.0534 238.27 74.0664C238.165 74.0794 238.079 74.0898 238.012 74.0977C237.85 74.1185 237.702 74.1536 237.566 74.2031C237.434 74.2526 237.327 74.3229 237.246 74.4141C237.168 74.5052 237.129 74.6263 237.129 74.7773C237.129 74.9154 237.164 75.0312 237.234 75.125C237.307 75.2188 237.405 75.2891 237.527 75.3359C237.65 75.3828 237.792 75.4062 237.953 75.4062ZM241.945 73.4141V76H241.086V71.6328H241.906L241.914 72.7031H241.824C241.952 72.3125 242.137 72.0273 242.379 71.8477C242.621 71.668 242.914 71.5781 243.258 71.5781C243.555 71.5781 243.814 71.6406 244.035 71.7656C244.257 71.8906 244.43 72.0755 244.555 72.3203C244.68 72.5625 244.742 72.8646 244.742 73.2266V76H243.883V73.332C243.883 73.0169 243.801 72.7708 243.637 72.5938C243.473 72.4167 243.247 72.3281 242.961 72.3281C242.768 72.3281 242.595 72.3711 242.441 72.457C242.288 72.5404 242.167 72.6628 242.078 72.8242C241.99 72.9857 241.945 73.1823 241.945 73.4141ZM247.523 76.0859C247.169 76.0859 246.854 75.9961 246.578 75.8164C246.302 75.6341 246.086 75.375 245.93 75.0391C245.773 74.7005 245.695 74.2969 245.695 73.8281C245.695 73.3542 245.775 72.9492 245.934 72.6133C246.092 72.2773 246.31 72.0208 246.586 71.8438C246.862 71.6667 247.174 71.5781 247.523 71.5781C247.794 71.5781 248.012 71.6237 248.176 71.7148C248.342 71.8034 248.473 71.9076 248.566 72.0273C248.66 72.1471 248.732 72.2526 248.781 72.3438H248.828V70.1797H249.688V76H248.852V75.3164H248.781C248.732 75.4102 248.659 75.5169 248.562 75.6367C248.466 75.7565 248.335 75.862 248.168 75.9531C248.001 76.0417 247.786 76.0859 247.523 76.0859ZM247.711 75.3555C247.956 75.3555 248.161 75.2904 248.328 75.1602C248.497 75.0299 248.625 74.8503 248.711 74.6211C248.799 74.3893 248.844 74.1224 248.844 73.8203C248.844 73.5156 248.801 73.2513 248.715 73.0273C248.629 72.8008 248.501 72.625 248.332 72.5C248.165 72.3724 247.958 72.3086 247.711 72.3086C247.458 72.3086 247.247 72.375 247.078 72.5078C246.911 72.6406 246.785 72.8216 246.699 73.0508C246.616 73.2773 246.574 73.5339 246.574 73.8203C246.574 74.1094 246.617 74.3698 246.703 74.6016C246.789 74.8333 246.917 75.0169 247.086 75.1523C247.255 75.2878 247.464 75.3555 247.711 75.3555ZM251.703 70.1797V76H250.844V70.1797H251.703ZM254.742 76.0898C254.312 76.0898 253.941 75.9974 253.629 75.8125C253.316 75.6276 253.076 75.3672 252.906 75.0312C252.74 74.6953 252.656 74.3008 252.656 73.8477C252.656 73.3997 252.738 73.0052 252.902 72.6641C253.069 72.3229 253.303 72.0573 253.605 71.8672C253.908 71.6745 254.262 71.5781 254.668 71.5781C254.918 71.5781 255.159 71.6198 255.391 71.7031C255.622 71.7839 255.831 71.9115 256.016 72.0859C256.201 72.2604 256.346 72.487 256.453 72.7656C256.562 73.0417 256.617 73.3776 256.617 73.7734V74.0781H253.137V73.4375H256.176L255.773 73.6484C255.773 73.3802 255.732 73.1445 255.648 72.9414C255.565 72.7357 255.441 72.5755 255.277 72.4609C255.116 72.3464 254.913 72.2891 254.668 72.2891C254.426 72.2891 254.219 72.3477 254.047 72.4648C253.875 72.582 253.743 72.737 253.652 72.9297C253.564 73.1198 253.52 73.3281 253.52 73.5547V73.9922C253.52 74.2917 253.57 74.5456 253.672 74.7539C253.776 74.9596 253.921 75.1159 254.105 75.2227C254.29 75.3268 254.505 75.3789 254.75 75.3789C254.911 75.3789 255.057 75.3568 255.188 75.3125C255.318 75.2656 255.43 75.1966 255.523 75.1055C255.62 75.0117 255.693 74.8971 255.742 74.7617L256.551 74.9531C256.48 75.1771 256.362 75.375 256.195 75.5469C256.031 75.7188 255.826 75.8529 255.578 75.9492C255.333 76.043 255.055 76.0898 254.742 76.0898ZM259.188 76.0859C258.833 76.0859 258.518 75.9961 258.242 75.8164C257.966 75.6341 257.75 75.375 257.594 75.0391C257.438 74.7005 257.359 74.2969 257.359 73.8281C257.359 73.3542 257.439 72.9492 257.598 72.6133C257.757 72.2773 257.974 72.0208 258.25 71.8438C258.526 71.6667 258.839 71.5781 259.188 71.5781C259.458 71.5781 259.676 71.6237 259.84 71.7148C260.007 71.8034 260.137 71.9076 260.23 72.0273C260.324 72.1471 260.396 72.2526 260.445 72.3438H260.492V70.1797H261.352V76H260.516V75.3164H260.445C260.396 75.4102 260.323 75.5169 260.227 75.6367C260.13 75.7565 259.999 75.862 259.832 75.9531C259.665 76.0417 259.451 76.0859 259.188 76.0859ZM259.375 75.3555C259.62 75.3555 259.826 75.2904 259.992 75.1602C260.161 75.0299 260.289 74.8503 260.375 74.6211C260.464 74.3893 260.508 74.1224 260.508 73.8203C260.508 73.5156 260.465 73.2513 260.379 73.0273C260.293 72.8008 260.165 72.625 259.996 72.5C259.829 72.3724 259.622 72.3086 259.375 72.3086C259.122 72.3086 258.911 72.375 258.742 72.5078C258.576 72.6406 258.449 72.8216 258.363 73.0508C258.28 73.2773 258.238 73.5339 258.238 73.8203C258.238 74.1094 258.281 74.3698 258.367 74.6016C258.453 74.8333 258.581 75.0169 258.75 75.1523C258.919 75.2878 259.128 75.3555 259.375 75.3555ZM266.809 76.0859C266.546 76.0859 266.329 76.0417 266.16 75.9531C265.993 75.862 265.862 75.7565 265.766 75.6367C265.672 75.5169 265.599 75.4102 265.547 75.3164H265.477V76H264.641V70.1797H265.5V72.3438H265.547C265.599 72.2526 265.671 72.1471 265.762 72.0273C265.855 71.9076 265.984 71.8034 266.148 71.7148C266.315 71.6237 266.535 71.5781 266.809 71.5781C267.158 71.5781 267.469 71.6667 267.742 71.8438C268.018 72.0208 268.236 72.2773 268.395 72.6133C268.553 72.9492 268.633 73.3542 268.633 73.8281C268.633 74.2969 268.555 74.7005 268.398 75.0391C268.242 75.375 268.026 75.6341 267.75 75.8164C267.477 75.9961 267.163 76.0859 266.809 76.0859ZM266.617 75.3555C266.867 75.3555 267.077 75.2878 267.246 75.1523C267.415 75.0169 267.542 74.8333 267.625 74.6016C267.711 74.3698 267.754 74.1094 267.754 73.8203C267.754 73.5339 267.711 73.2773 267.625 73.0508C267.542 72.8216 267.415 72.6406 267.246 72.5078C267.079 72.375 266.87 72.3086 266.617 72.3086C266.372 72.3086 266.165 72.3724 265.996 72.5C265.827 72.625 265.699 72.8008 265.613 73.0273C265.527 73.2513 265.484 73.5156 265.484 73.8203C265.484 74.1224 265.527 74.3893 265.613 74.6211C265.702 74.8503 265.831 75.0299 266 75.1602C266.169 75.2904 266.375 75.3555 266.617 75.3555ZM269.379 77.5703L269.59 76.8711L269.688 76.8945C269.836 76.9336 269.969 76.944 270.086 76.9258C270.206 76.9076 270.309 76.8516 270.395 76.7578C270.483 76.6667 270.553 76.5273 270.605 76.3398L270.699 76.0195L269.039 71.6328H269.969L270.832 74.1133C270.928 74.3893 271.008 74.6641 271.07 74.9375C271.135 75.2109 271.206 75.4831 271.281 75.7539H271.016C271.091 75.4831 271.163 75.2109 271.23 74.9375C271.301 74.6615 271.384 74.3867 271.48 74.1133L272.359 71.6328H273.281L271.383 76.6055C271.294 76.8398 271.185 77.0352 271.055 77.1914C270.927 77.3477 270.775 77.4648 270.598 77.543C270.421 77.6237 270.215 77.6641 269.98 77.6641C269.845 77.6641 269.724 77.6536 269.617 77.6328C269.51 77.6146 269.431 77.5938 269.379 77.5703ZM278.191 76.0977C277.757 76.0977 277.379 76.0286 277.059 75.8906C276.738 75.7526 276.487 75.556 276.305 75.3008C276.125 75.043 276.026 74.737 276.008 74.3828H276.902C276.921 74.5938 276.988 74.7682 277.105 74.9062C277.225 75.0443 277.38 75.1471 277.57 75.2148C277.76 75.2826 277.966 75.3164 278.188 75.3164C278.435 75.3164 278.654 75.2786 278.844 75.2031C279.036 75.125 279.189 75.0156 279.301 74.875C279.413 74.7318 279.469 74.5664 279.469 74.3789C279.469 74.2096 279.419 74.0716 279.32 73.9648C279.224 73.8555 279.092 73.7656 278.926 73.6953C278.762 73.6224 278.574 73.5586 278.363 73.5039L277.684 73.3164C277.207 73.1888 276.835 73 276.566 72.75C276.301 72.5 276.168 72.1758 276.168 71.7773C276.168 71.4414 276.258 71.1484 276.438 70.8984C276.62 70.6458 276.866 70.4505 277.176 70.3125C277.488 70.1719 277.84 70.1016 278.23 70.1016C278.629 70.1016 278.979 70.1719 279.281 70.3125C279.586 70.4505 279.824 70.6406 279.996 70.8828C280.171 71.125 280.262 71.401 280.27 71.7109H279.402C279.374 71.4453 279.25 71.2396 279.031 71.0938C278.815 70.9479 278.542 70.875 278.211 70.875C277.977 70.875 277.772 70.9115 277.598 70.9844C277.426 71.0573 277.292 71.1589 277.195 71.2891C277.102 71.4167 277.055 71.5625 277.055 71.7266C277.055 71.9115 277.111 72.0612 277.223 72.1758C277.337 72.2878 277.475 72.3776 277.637 72.4453C277.801 72.5104 277.957 72.5625 278.105 72.6016L278.672 72.75C278.857 72.7969 279.047 72.8607 279.242 72.9414C279.44 73.0195 279.622 73.1224 279.789 73.25C279.956 73.375 280.09 73.5312 280.191 73.7188C280.296 73.9036 280.348 74.1276 280.348 74.3906C280.348 74.7188 280.263 75.0117 280.094 75.2695C279.924 75.5273 279.678 75.7305 279.355 75.8789C279.035 76.0247 278.647 76.0977 278.191 76.0977ZM283.227 76.0898C282.797 76.0898 282.426 75.9974 282.113 75.8125C281.801 75.6276 281.56 75.3672 281.391 75.0312C281.224 74.6953 281.141 74.3008 281.141 73.8477C281.141 73.3997 281.223 73.0052 281.387 72.6641C281.553 72.3229 281.788 72.0573 282.09 71.8672C282.392 71.6745 282.746 71.5781 283.152 71.5781C283.402 71.5781 283.643 71.6198 283.875 71.7031C284.107 71.7839 284.315 71.9115 284.5 72.0859C284.685 72.2604 284.831 72.487 284.938 72.7656C285.047 73.0417 285.102 73.3776 285.102 73.7734V74.0781H281.621V73.4375H284.66L284.258 73.6484C284.258 73.3802 284.216 73.1445 284.133 72.9414C284.049 72.7357 283.926 72.5755 283.762 72.4609C283.6 72.3464 283.397 72.2891 283.152 72.2891C282.91 72.2891 282.703 72.3477 282.531 72.4648C282.359 72.582 282.228 72.737 282.137 72.9297C282.048 73.1198 282.004 73.3281 282.004 73.5547V73.9922C282.004 74.2917 282.055 74.5456 282.156 74.7539C282.26 74.9596 282.405 75.1159 282.59 75.2227C282.775 75.3268 282.99 75.3789 283.234 75.3789C283.396 75.3789 283.542 75.3568 283.672 75.3125C283.802 75.2656 283.914 75.1966 284.008 75.1055C284.104 75.0117 284.177 74.8971 284.227 74.7617L285.035 74.9531C284.965 75.1771 284.846 75.375 284.68 75.5469C284.516 75.7188 284.31 75.8529 284.062 75.9492C283.818 76.043 283.539 76.0898 283.227 76.0898ZM286.906 73.4141V76H286.047V71.6328H286.867L286.875 72.7031H286.785C286.913 72.3125 287.098 72.0273 287.34 71.8477C287.582 71.668 287.875 71.5781 288.219 71.5781C288.516 71.5781 288.775 71.6406 288.996 71.7656C289.217 71.8906 289.391 72.0755 289.516 72.3203C289.641 72.5625 289.703 72.8646 289.703 73.2266V76H288.844V73.332C288.844 73.0169 288.762 72.7708 288.598 72.5938C288.434 72.4167 288.208 72.3281 287.922 72.3281C287.729 72.3281 287.556 72.3711 287.402 72.457C287.249 72.5404 287.128 72.6628 287.039 72.8242C286.951 72.9857 286.906 73.1823 286.906 73.4141ZM292.727 71.6328V72.332H290.359V71.6328H292.727ZM290.996 70.5938H291.855V74.8203C291.855 74.9948 291.892 75.1237 291.965 75.207C292.04 75.2878 292.163 75.3281 292.332 75.3281C292.376 75.3281 292.435 75.3229 292.508 75.3125C292.581 75.3021 292.643 75.2917 292.695 75.2812L292.848 75.9688C292.757 76 292.659 76.0221 292.555 76.0352C292.451 76.0508 292.348 76.0586 292.246 76.0586C291.85 76.0586 291.543 75.957 291.324 75.7539C291.105 75.5482 290.996 75.2604 290.996 74.8906V70.5938ZM293.586 76V71.6328H294.418V72.3359H294.465C294.546 72.0964 294.686 71.9089 294.887 71.7734C295.087 71.638 295.315 71.5703 295.57 71.5703C295.625 71.5703 295.688 71.5729 295.758 71.5781C295.828 71.5807 295.887 71.5859 295.934 71.5938V72.4141C295.902 72.4036 295.842 72.3932 295.754 72.3828C295.665 72.3724 295.576 72.3672 295.484 72.3672C295.286 72.3672 295.108 72.4089 294.949 72.4922C294.79 72.5755 294.667 72.6914 294.578 72.8398C294.49 72.9857 294.445 73.1549 294.445 73.3477V76H293.586ZM297.863 76.0977C297.587 76.0977 297.337 76.0469 297.113 75.9453C296.889 75.8411 296.712 75.6901 296.582 75.4922C296.452 75.2943 296.387 75.0521 296.387 74.7656C296.387 74.5182 296.434 74.3151 296.527 74.1562C296.624 73.9974 296.753 73.8711 296.914 73.7773C297.078 73.6836 297.259 73.6133 297.457 73.5664C297.658 73.5195 297.861 73.4844 298.066 73.4609C298.324 73.4297 298.534 73.4049 298.695 73.3867C298.857 73.3659 298.975 73.3333 299.051 73.2891C299.129 73.2422 299.168 73.168 299.168 73.0664V73.043C299.168 72.8789 299.137 72.7409 299.074 72.6289C299.012 72.5169 298.918 72.431 298.793 72.3711C298.671 72.3086 298.517 72.2773 298.332 72.2773C298.142 72.2773 297.978 72.3073 297.84 72.3672C297.704 72.4245 297.594 72.4987 297.508 72.5898C297.424 72.681 297.362 72.776 297.32 72.875L296.512 72.6641C296.611 72.4036 296.753 72.194 296.938 72.0352C297.122 71.8763 297.335 71.7604 297.574 71.6875C297.814 71.6146 298.061 71.5781 298.316 71.5781C298.493 71.5781 298.681 71.599 298.879 71.6406C299.077 71.6823 299.263 71.7578 299.438 71.8672C299.612 71.9766 299.754 72.1302 299.863 72.3281C299.973 72.526 300.027 72.7839 300.027 73.1016V76H299.195V75.4023H299.152C299.095 75.5143 299.01 75.6237 298.898 75.7305C298.786 75.8372 298.645 75.9258 298.473 75.9961C298.303 76.0638 298.1 76.0977 297.863 76.0977ZM298.055 75.4062C298.289 75.4062 298.49 75.3607 298.656 75.2695C298.823 75.1784 298.951 75.0573 299.039 74.9062C299.128 74.7552 299.172 74.5951 299.172 74.4258V73.8672C299.141 73.8984 299.081 73.9271 298.992 73.9531C298.906 73.9766 298.807 73.9987 298.695 74.0195C298.583 74.0378 298.475 74.0534 298.371 74.0664C298.267 74.0794 298.181 74.0898 298.113 74.0977C297.952 74.1185 297.803 74.1536 297.668 74.2031C297.535 74.2526 297.428 74.3229 297.348 74.4141C297.27 74.5052 297.23 74.6263 297.23 74.7773C297.23 74.9154 297.266 75.0312 297.336 75.125C297.409 75.2188 297.507 75.2891 297.629 75.3359C297.751 75.3828 297.893 75.4062 298.055 75.4062Z" fill="#475569"/>
<rect x="210.5" y="171.5" width="149" height="25" rx="3.5" fill="#E0F2FE"/>
<rect x="210.5" y="171.5" width="149" height="25" rx="3.5" stroke="#BAE6FD"/>
<path d="M218.645 184V178.18H219.957L221.227 181.52C221.263 181.618 221.303 181.743 221.348 181.895C221.395 182.046 221.443 182.21 221.492 182.387C221.542 182.564 221.589 182.738 221.633 182.91C221.677 183.082 221.716 183.237 221.75 183.375H221.562C221.596 183.245 221.635 183.095 221.68 182.926C221.724 182.754 221.771 182.579 221.82 182.402C221.87 182.225 221.918 182.059 221.965 181.902C222.012 181.746 222.053 181.618 222.09 181.52L223.34 178.18H224.66V184H223.773V180.867C223.773 180.747 223.775 180.604 223.777 180.438C223.78 180.271 223.783 180.095 223.785 179.91C223.79 179.723 223.794 179.534 223.797 179.344C223.802 179.154 223.806 178.971 223.809 178.797H223.875C223.823 178.987 223.766 179.184 223.703 179.387C223.643 179.587 223.583 179.781 223.523 179.969C223.466 180.156 223.41 180.328 223.355 180.484C223.303 180.638 223.259 180.766 223.223 180.867L222.031 184H221.27L220.062 180.867C220.023 180.768 219.978 180.643 219.926 180.492C219.876 180.339 219.822 180.169 219.762 179.984C219.702 179.797 219.641 179.603 219.578 179.402C219.516 179.199 219.453 178.997 219.391 178.797H219.469C219.474 178.956 219.478 179.129 219.48 179.316C219.486 179.501 219.49 179.689 219.492 179.879C219.497 180.069 219.501 180.25 219.504 180.422C219.509 180.591 219.512 180.74 219.512 180.867V184H218.645ZM227.766 184.09C227.336 184.09 226.965 183.997 226.652 183.812C226.34 183.628 226.099 183.367 225.93 183.031C225.763 182.695 225.68 182.301 225.68 181.848C225.68 181.4 225.762 181.005 225.926 180.664C226.092 180.323 226.327 180.057 226.629 179.867C226.931 179.674 227.285 179.578 227.691 179.578C227.941 179.578 228.182 179.62 228.414 179.703C228.646 179.784 228.854 179.911 229.039 180.086C229.224 180.26 229.37 180.487 229.477 180.766C229.586 181.042 229.641 181.378 229.641 181.773V182.078H226.16V181.438H229.199L228.797 181.648C228.797 181.38 228.755 181.145 228.672 180.941C228.589 180.736 228.465 180.576 228.301 180.461C228.139 180.346 227.936 180.289 227.691 180.289C227.449 180.289 227.242 180.348 227.07 180.465C226.898 180.582 226.767 180.737 226.676 180.93C226.587 181.12 226.543 181.328 226.543 181.555V181.992C226.543 182.292 226.594 182.546 226.695 182.754C226.799 182.96 226.944 183.116 227.129 183.223C227.314 183.327 227.529 183.379 227.773 183.379C227.935 183.379 228.081 183.357 228.211 183.312C228.341 183.266 228.453 183.197 228.547 183.105C228.643 183.012 228.716 182.897 228.766 182.762L229.574 182.953C229.504 183.177 229.385 183.375 229.219 183.547C229.055 183.719 228.849 183.853 228.602 183.949C228.357 184.043 228.078 184.09 227.766 184.09ZM232.469 184.09C232.039 184.09 231.668 183.997 231.355 183.812C231.043 183.628 230.802 183.367 230.633 183.031C230.466 182.695 230.383 182.301 230.383 181.848C230.383 181.4 230.465 181.005 230.629 180.664C230.796 180.323 231.03 180.057 231.332 179.867C231.634 179.674 231.988 179.578 232.395 179.578C232.645 179.578 232.885 179.62 233.117 179.703C233.349 179.784 233.557 179.911 233.742 180.086C233.927 180.26 234.073 180.487 234.18 180.766C234.289 181.042 234.344 181.378 234.344 181.773V182.078H230.863V181.438H233.902L233.5 181.648C233.5 181.38 233.458 181.145 233.375 180.941C233.292 180.736 233.168 180.576 233.004 180.461C232.842 180.346 232.639 180.289 232.395 180.289C232.152 180.289 231.945 180.348 231.773 180.465C231.602 180.582 231.47 180.737 231.379 180.93C231.29 181.12 231.246 181.328 231.246 181.555V181.992C231.246 182.292 231.297 182.546 231.398 182.754C231.503 182.96 231.647 183.116 231.832 183.223C232.017 183.327 232.232 183.379 232.477 183.379C232.638 183.379 232.784 183.357 232.914 183.312C233.044 183.266 233.156 183.197 233.25 183.105C233.346 183.012 233.419 182.897 233.469 182.762L234.277 182.953C234.207 183.177 234.089 183.375 233.922 183.547C233.758 183.719 233.552 183.853 233.305 183.949C233.06 184.043 232.781 184.09 232.469 184.09ZM237.156 179.633V180.332H234.789V179.633H237.156ZM235.426 178.594H236.285V182.82C236.285 182.995 236.322 183.124 236.395 183.207C236.47 183.288 236.592 183.328 236.762 183.328C236.806 183.328 236.865 183.323 236.938 183.312C237.01 183.302 237.073 183.292 237.125 183.281L237.277 183.969C237.186 184 237.089 184.022 236.984 184.035C236.88 184.051 236.777 184.059 236.676 184.059C236.28 184.059 235.973 183.957 235.754 183.754C235.535 183.548 235.426 183.26 235.426 182.891V178.594ZM238.016 184V179.633H238.875V184H238.016ZM238.449 178.965C238.301 178.965 238.173 178.915 238.066 178.816C237.962 178.717 237.91 178.598 237.91 178.457C237.91 178.314 237.962 178.193 238.066 178.094C238.173 177.995 238.301 177.945 238.449 177.945C238.598 177.945 238.725 177.995 238.832 178.094C238.939 178.193 238.992 178.314 238.992 178.457C238.992 178.598 238.939 178.717 238.832 178.816C238.725 178.915 238.598 178.965 238.449 178.965ZM240.891 181.414V184H240.031V179.633H240.852L240.859 180.703H240.77C240.897 180.312 241.082 180.027 241.324 179.848C241.566 179.668 241.859 179.578 242.203 179.578C242.5 179.578 242.759 179.641 242.98 179.766C243.202 179.891 243.375 180.076 243.5 180.32C243.625 180.562 243.688 180.865 243.688 181.227V184H242.828V181.332C242.828 181.017 242.746 180.771 242.582 180.594C242.418 180.417 242.193 180.328 241.906 180.328C241.714 180.328 241.54 180.371 241.387 180.457C241.233 180.54 241.112 180.663 241.023 180.824C240.935 180.986 240.891 181.182 240.891 181.414ZM246.668 185.727C246.332 185.727 246.04 185.684 245.793 185.598C245.546 185.512 245.341 185.397 245.18 185.254C245.021 185.111 244.9 184.952 244.816 184.777L245.535 184.438C245.587 184.521 245.656 184.608 245.742 184.699C245.831 184.793 245.949 184.872 246.098 184.938C246.246 185.003 246.436 185.035 246.668 185.035C247.001 185.035 247.271 184.956 247.477 184.797C247.685 184.641 247.789 184.395 247.789 184.059V183.207H247.715C247.663 183.303 247.59 183.408 247.496 183.52C247.405 183.632 247.276 183.729 247.109 183.812C246.945 183.893 246.73 183.934 246.465 183.934C246.121 183.934 245.811 183.853 245.535 183.691C245.262 183.53 245.044 183.29 244.883 182.973C244.721 182.655 244.641 182.264 244.641 181.801C244.641 181.337 244.72 180.94 244.879 180.609C245.04 180.276 245.259 180.021 245.535 179.844C245.814 179.667 246.128 179.578 246.477 179.578C246.745 179.578 246.962 179.622 247.129 179.711C247.298 179.799 247.43 179.905 247.523 180.027C247.62 180.147 247.693 180.253 247.742 180.344H247.805V179.633H248.645V184.062C248.645 184.445 248.557 184.759 248.383 185.004C248.211 185.251 247.975 185.434 247.676 185.551C247.379 185.668 247.043 185.727 246.668 185.727ZM246.664 183.219C246.909 183.219 247.115 183.163 247.281 183.051C247.451 182.936 247.578 182.772 247.664 182.559C247.75 182.342 247.793 182.086 247.793 181.789C247.793 181.495 247.75 181.237 247.664 181.016C247.578 180.794 247.451 180.621 247.281 180.496C247.115 180.371 246.909 180.309 246.664 180.309C246.411 180.309 246.201 180.375 246.031 180.508C245.862 180.638 245.734 180.815 245.648 181.039C245.562 181.26 245.52 181.51 245.52 181.789C245.52 182.073 245.562 182.323 245.648 182.539C245.734 182.753 245.862 182.919 246.031 183.039C246.203 183.159 246.414 183.219 246.664 183.219Z" fill="#475569"/>
<rect x="210.5" y="207.5" width="149" height="63" rx="3.5" fill="white"/>
<rect x="210.5" y="207.5" width="149" height="63" rx="3.5" stroke="#E2E8F0"/>
<path d="M224.667 215L221 218.667L219.333 217" stroke="black" stroke-width="0.666667" stroke-linecap="round" stroke-linejoin="round"/>
<path d="M230.645 220V214.18H231.535V216.641H234.418V214.18H235.312V220H234.418V217.406H231.535V220H230.645ZM237.762 220.098C237.486 220.098 237.236 220.047 237.012 219.945C236.788 219.841 236.611 219.69 236.48 219.492C236.35 219.294 236.285 219.052 236.285 218.766C236.285 218.518 236.332 218.315 236.426 218.156C236.522 217.997 236.651 217.871 236.812 217.777C236.977 217.684 237.158 217.613 237.355 217.566C237.556 217.52 237.759 217.484 237.965 217.461C238.223 217.43 238.432 217.405 238.594 217.387C238.755 217.366 238.874 217.333 238.949 217.289C239.027 217.242 239.066 217.168 239.066 217.066V217.043C239.066 216.879 239.035 216.741 238.973 216.629C238.91 216.517 238.816 216.431 238.691 216.371C238.569 216.309 238.415 216.277 238.23 216.277C238.04 216.277 237.876 216.307 237.738 216.367C237.603 216.424 237.492 216.499 237.406 216.59C237.323 216.681 237.26 216.776 237.219 216.875L236.41 216.664C236.509 216.404 236.651 216.194 236.836 216.035C237.021 215.876 237.233 215.76 237.473 215.688C237.712 215.615 237.96 215.578 238.215 215.578C238.392 215.578 238.579 215.599 238.777 215.641C238.975 215.682 239.161 215.758 239.336 215.867C239.51 215.977 239.652 216.13 239.762 216.328C239.871 216.526 239.926 216.784 239.926 217.102V220H239.094V219.402H239.051C238.993 219.514 238.909 219.624 238.797 219.73C238.685 219.837 238.543 219.926 238.371 219.996C238.202 220.064 237.999 220.098 237.762 220.098ZM237.953 219.406C238.188 219.406 238.388 219.361 238.555 219.27C238.721 219.178 238.849 219.057 238.938 218.906C239.026 218.755 239.07 218.595 239.07 218.426V217.867C239.039 217.898 238.979 217.927 238.891 217.953C238.805 217.977 238.706 217.999 238.594 218.02C238.482 218.038 238.374 218.053 238.27 218.066C238.165 218.079 238.079 218.09 238.012 218.098C237.85 218.118 237.702 218.154 237.566 218.203C237.434 218.253 237.327 218.323 237.246 218.414C237.168 218.505 237.129 218.626 237.129 218.777C237.129 218.915 237.164 219.031 237.234 219.125C237.307 219.219 237.405 219.289 237.527 219.336C237.65 219.383 237.792 219.406 237.953 219.406ZM241.945 217.414V220H241.086V215.633H241.906L241.914 216.703H241.824C241.952 216.312 242.137 216.027 242.379 215.848C242.621 215.668 242.914 215.578 243.258 215.578C243.555 215.578 243.814 215.641 244.035 215.766C244.257 215.891 244.43 216.076 244.555 216.32C244.68 216.562 244.742 216.865 244.742 217.227V220H243.883V217.332C243.883 217.017 243.801 216.771 243.637 216.594C243.473 216.417 243.247 216.328 242.961 216.328C242.768 216.328 242.595 216.371 242.441 216.457C242.288 216.54 242.167 216.663 242.078 216.824C241.99 216.986 241.945 217.182 241.945 217.414ZM247.523 220.086C247.169 220.086 246.854 219.996 246.578 219.816C246.302 219.634 246.086 219.375 245.93 219.039C245.773 218.701 245.695 218.297 245.695 217.828C245.695 217.354 245.775 216.949 245.934 216.613C246.092 216.277 246.31 216.021 246.586 215.844C246.862 215.667 247.174 215.578 247.523 215.578C247.794 215.578 248.012 215.624 248.176 215.715C248.342 215.803 248.473 215.908 248.566 216.027C248.66 216.147 248.732 216.253 248.781 216.344H248.828V214.18H249.688V220H248.852V219.316H248.781C248.732 219.41 248.659 219.517 248.562 219.637C248.466 219.757 248.335 219.862 248.168 219.953C248.001 220.042 247.786 220.086 247.523 220.086ZM247.711 219.355C247.956 219.355 248.161 219.29 248.328 219.16C248.497 219.03 248.625 218.85 248.711 218.621C248.799 218.389 248.844 218.122 248.844 217.82C248.844 217.516 248.801 217.251 248.715 217.027C248.629 216.801 248.501 216.625 248.332 216.5C248.165 216.372 247.958 216.309 247.711 216.309C247.458 216.309 247.247 216.375 247.078 216.508C246.911 216.641 246.785 216.822 246.699 217.051C246.616 217.277 246.574 217.534 246.574 217.82C246.574 218.109 246.617 218.37 246.703 218.602C246.789 218.833 246.917 219.017 247.086 219.152C247.255 219.288 247.464 219.355 247.711 219.355ZM251.703 214.18V220H250.844V214.18H251.703ZM254.742 220.09C254.312 220.09 253.941 219.997 253.629 219.812C253.316 219.628 253.076 219.367 252.906 219.031C252.74 218.695 252.656 218.301 252.656 217.848C252.656 217.4 252.738 217.005 252.902 216.664C253.069 216.323 253.303 216.057 253.605 215.867C253.908 215.674 254.262 215.578 254.668 215.578C254.918 215.578 255.159 215.62 255.391 215.703C255.622 215.784 255.831 215.911 256.016 216.086C256.201 216.26 256.346 216.487 256.453 216.766C256.562 217.042 256.617 217.378 256.617 217.773V218.078H253.137V217.438H256.176L255.773 217.648C255.773 217.38 255.732 217.145 255.648 216.941C255.565 216.736 255.441 216.576 255.277 216.461C255.116 216.346 254.913 216.289 254.668 216.289C254.426 216.289 254.219 216.348 254.047 216.465C253.875 216.582 253.743 216.737 253.652 216.93C253.564 217.12 253.52 217.328 253.52 217.555V217.992C253.52 218.292 253.57 218.546 253.672 218.754C253.776 218.96 253.921 219.116 254.105 219.223C254.29 219.327 254.505 219.379 254.75 219.379C254.911 219.379 255.057 219.357 255.188 219.312C255.318 219.266 255.43 219.197 255.523 219.105C255.62 219.012 255.693 218.897 255.742 218.762L256.551 218.953C256.48 219.177 256.362 219.375 256.195 219.547C256.031 219.719 255.826 219.853 255.578 219.949C255.333 220.043 255.055 220.09 254.742 220.09ZM259.188 220.086C258.833 220.086 258.518 219.996 258.242 219.816C257.966 219.634 257.75 219.375 257.594 219.039C257.438 218.701 257.359 218.297 257.359 217.828C257.359 217.354 257.439 216.949 257.598 216.613C257.757 216.277 257.974 216.021 258.25 215.844C258.526 215.667 258.839 215.578 259.188 215.578C259.458 215.578 259.676 215.624 259.84 215.715C260.007 215.803 260.137 215.908 260.23 216.027C260.324 216.147 260.396 216.253 260.445 216.344H260.492V214.18H261.352V220H260.516V219.316H260.445C260.396 219.41 260.323 219.517 260.227 219.637C260.13 219.757 259.999 219.862 259.832 219.953C259.665 220.042 259.451 220.086 259.188 220.086ZM259.375 219.355C259.62 219.355 259.826 219.29 259.992 219.16C260.161 219.03 260.289 218.85 260.375 218.621C260.464 218.389 260.508 218.122 260.508 217.82C260.508 217.516 260.465 217.251 260.379 217.027C260.293 216.801 260.165 216.625 259.996 216.5C259.829 216.372 259.622 216.309 259.375 216.309C259.122 216.309 258.911 216.375 258.742 216.508C258.576 216.641 258.449 216.822 258.363 217.051C258.28 217.277 258.238 217.534 258.238 217.82C258.238 218.109 258.281 218.37 258.367 218.602C258.453 218.833 258.581 219.017 258.75 219.152C258.919 219.288 259.128 219.355 259.375 219.355ZM266.809 220.086C266.546 220.086 266.329 220.042 266.16 219.953C265.993 219.862 265.862 219.757 265.766 219.637C265.672 219.517 265.599 219.41 265.547 219.316H265.477V220H264.641V214.18H265.5V216.344H265.547C265.599 216.253 265.671 216.147 265.762 216.027C265.855 215.908 265.984 215.803 266.148 215.715C266.315 215.624 266.535 215.578 266.809 215.578C267.158 215.578 267.469 215.667 267.742 215.844C268.018 216.021 268.236 216.277 268.395 216.613C268.553 216.949 268.633 217.354 268.633 217.828C268.633 218.297 268.555 218.701 268.398 219.039C268.242 219.375 268.026 219.634 267.75 219.816C267.477 219.996 267.163 220.086 266.809 220.086ZM266.617 219.355C266.867 219.355 267.077 219.288 267.246 219.152C267.415 219.017 267.542 218.833 267.625 218.602C267.711 218.37 267.754 218.109 267.754 217.82C267.754 217.534 267.711 217.277 267.625 217.051C267.542 216.822 267.415 216.641 267.246 216.508C267.079 216.375 266.87 216.309 266.617 216.309C266.372 216.309 266.165 216.372 265.996 216.5C265.827 216.625 265.699 216.801 265.613 217.027C265.527 217.251 265.484 217.516 265.484 217.82C265.484 218.122 265.527 218.389 265.613 218.621C265.702 218.85 265.831 219.03 266 219.16C266.169 219.29 266.375 219.355 266.617 219.355ZM269.379 221.57L269.59 220.871L269.688 220.895C269.836 220.934 269.969 220.944 270.086 220.926C270.206 220.908 270.309 220.852 270.395 220.758C270.483 220.667 270.553 220.527 270.605 220.34L270.699 220.02L269.039 215.633H269.969L270.832 218.113C270.928 218.389 271.008 218.664 271.07 218.938C271.135 219.211 271.206 219.483 271.281 219.754H271.016C271.091 219.483 271.163 219.211 271.23 218.938C271.301 218.661 271.384 218.387 271.48 218.113L272.359 215.633H273.281L271.383 220.605C271.294 220.84 271.185 221.035 271.055 221.191C270.927 221.348 270.775 221.465 270.598 221.543C270.421 221.624 270.215 221.664 269.98 221.664C269.845 221.664 269.724 221.654 269.617 221.633C269.51 221.615 269.431 221.594 269.379 221.57ZM278.191 220.098C277.757 220.098 277.379 220.029 277.059 219.891C276.738 219.753 276.487 219.556 276.305 219.301C276.125 219.043 276.026 218.737 276.008 218.383H276.902C276.921 218.594 276.988 218.768 277.105 218.906C277.225 219.044 277.38 219.147 277.57 219.215C277.76 219.283 277.966 219.316 278.188 219.316C278.435 219.316 278.654 219.279 278.844 219.203C279.036 219.125 279.189 219.016 279.301 218.875C279.413 218.732 279.469 218.566 279.469 218.379C279.469 218.21 279.419 218.072 279.32 217.965C279.224 217.855 279.092 217.766 278.926 217.695C278.762 217.622 278.574 217.559 278.363 217.504L277.684 217.316C277.207 217.189 276.835 217 276.566 216.75C276.301 216.5 276.168 216.176 276.168 215.777C276.168 215.441 276.258 215.148 276.438 214.898C276.62 214.646 276.866 214.451 277.176 214.312C277.488 214.172 277.84 214.102 278.23 214.102C278.629 214.102 278.979 214.172 279.281 214.312C279.586 214.451 279.824 214.641 279.996 214.883C280.171 215.125 280.262 215.401 280.27 215.711H279.402C279.374 215.445 279.25 215.24 279.031 215.094C278.815 214.948 278.542 214.875 278.211 214.875C277.977 214.875 277.772 214.911 277.598 214.984C277.426 215.057 277.292 215.159 277.195 215.289C277.102 215.417 277.055 215.562 277.055 215.727C277.055 215.911 277.111 216.061 277.223 216.176C277.337 216.288 277.475 216.378 277.637 216.445C277.801 216.51 277.957 216.562 278.105 216.602L278.672 216.75C278.857 216.797 279.047 216.861 279.242 216.941C279.44 217.02 279.622 217.122 279.789 217.25C279.956 217.375 280.09 217.531 280.191 217.719C280.296 217.904 280.348 218.128 280.348 218.391C280.348 218.719 280.263 219.012 280.094 219.27C279.924 219.527 279.678 219.73 279.355 219.879C279.035 220.025 278.647 220.098 278.191 220.098ZM283.227 220.09C282.797 220.09 282.426 219.997 282.113 219.812C281.801 219.628 281.56 219.367 281.391 219.031C281.224 218.695 281.141 218.301 281.141 217.848C281.141 217.4 281.223 217.005 281.387 216.664C281.553 216.323 281.788 216.057 282.09 215.867C282.392 215.674 282.746 215.578 283.152 215.578C283.402 215.578 283.643 215.62 283.875 215.703C284.107 215.784 284.315 215.911 284.5 216.086C284.685 216.26 284.831 216.487 284.938 216.766C285.047 217.042 285.102 217.378 285.102 217.773V218.078H281.621V217.438H284.66L284.258 217.648C284.258 217.38 284.216 217.145 284.133 216.941C284.049 216.736 283.926 216.576 283.762 216.461C283.6 216.346 283.397 216.289 283.152 216.289C282.91 216.289 282.703 216.348 282.531 216.465C282.359 216.582 282.228 216.737 282.137 216.93C282.048 217.12 282.004 217.328 282.004 217.555V217.992C282.004 218.292 282.055 218.546 282.156 218.754C282.26 218.96 282.405 219.116 282.59 219.223C282.775 219.327 282.99 219.379 283.234 219.379C283.396 219.379 283.542 219.357 283.672 219.312C283.802 219.266 283.914 219.197 284.008 219.105C284.104 219.012 284.177 218.897 284.227 218.762L285.035 218.953C284.965 219.177 284.846 219.375 284.68 219.547C284.516 219.719 284.31 219.853 284.062 219.949C283.818 220.043 283.539 220.09 283.227 220.09ZM286.906 217.414V220H286.047V215.633H286.867L286.875 216.703H286.785C286.913 216.312 287.098 216.027 287.34 215.848C287.582 215.668 287.875 215.578 288.219 215.578C288.516 215.578 288.775 215.641 288.996 215.766C289.217 215.891 289.391 216.076 289.516 216.32C289.641 216.562 289.703 216.865 289.703 217.227V220H288.844V217.332C288.844 217.017 288.762 216.771 288.598 216.594C288.434 216.417 288.208 216.328 287.922 216.328C287.729 216.328 287.556 216.371 287.402 216.457C287.249 216.54 287.128 216.663 287.039 216.824C286.951 216.986 286.906 217.182 286.906 217.414ZM292.727 215.633V216.332H290.359V215.633H292.727ZM290.996 214.594H291.855V218.82C291.855 218.995 291.892 219.124 291.965 219.207C292.04 219.288 292.163 219.328 292.332 219.328C292.376 219.328 292.435 219.323 292.508 219.312C292.581 219.302 292.643 219.292 292.695 219.281L292.848 219.969C292.757 220 292.659 220.022 292.555 220.035C292.451 220.051 292.348 220.059 292.246 220.059C291.85 220.059 291.543 219.957 291.324 219.754C291.105 219.548 290.996 219.26 290.996 218.891V214.594ZM293.586 220V215.633H294.418V216.336H294.465C294.546 216.096 294.686 215.909 294.887 215.773C295.087 215.638 295.315 215.57 295.57 215.57C295.625 215.57 295.688 215.573 295.758 215.578C295.828 215.581 295.887 215.586 295.934 215.594V216.414C295.902 216.404 295.842 216.393 295.754 216.383C295.665 216.372 295.576 216.367 295.484 216.367C295.286 216.367 295.108 216.409 294.949 216.492C294.79 216.576 294.667 216.691 294.578 216.84C294.49 216.986 294.445 217.155 294.445 217.348V220H293.586ZM297.863 220.098C297.587 220.098 297.337 220.047 297.113 219.945C296.889 219.841 296.712 219.69 296.582 219.492C296.452 219.294 296.387 219.052 296.387 218.766C296.387 218.518 296.434 218.315 296.527 218.156C296.624 217.997 296.753 217.871 296.914 217.777C297.078 217.684 297.259 217.613 297.457 217.566C297.658 217.52 297.861 217.484 298.066 217.461C298.324 217.43 298.534 217.405 298.695 217.387C298.857 217.366 298.975 217.333 299.051 217.289C299.129 217.242 299.168 217.168 299.168 217.066V217.043C299.168 216.879 299.137 216.741 299.074 216.629C299.012 216.517 298.918 216.431 298.793 216.371C298.671 216.309 298.517 216.277 298.332 216.277C298.142 216.277 297.978 216.307 297.84 216.367C297.704 216.424 297.594 216.499 297.508 216.59C297.424 216.681 297.362 216.776 297.32 216.875L296.512 216.664C296.611 216.404 296.753 216.194 296.938 216.035C297.122 215.876 297.335 215.76 297.574 215.688C297.814 215.615 298.061 215.578 298.316 215.578C298.493 215.578 298.681 215.599 298.879 215.641C299.077 215.682 299.263 215.758 299.438 215.867C299.612 215.977 299.754 216.13 299.863 216.328C299.973 216.526 300.027 216.784 300.027 217.102V220H299.195V219.402H299.152C299.095 219.514 299.01 219.624 298.898 219.73C298.786 219.837 298.645 219.926 298.473 219.996C298.303 220.064 298.1 220.098 297.863 220.098ZM298.055 219.406C298.289 219.406 298.49 219.361 298.656 219.27C298.823 219.178 298.951 219.057 299.039 218.906C299.128 218.755 299.172 218.595 299.172 218.426V217.867C299.141 217.898 299.081 217.927 298.992 217.953C298.906 217.977 298.807 217.999 298.695 218.02C298.583 218.038 298.475 218.053 298.371 218.066C298.267 218.079 298.181 218.09 298.113 218.098C297.952 218.118 297.803 218.154 297.668 218.203C297.535 218.253 297.428 218.323 297.348 218.414C297.27 218.505 297.23 218.626 297.23 218.777C297.23 218.915 297.266 219.031 297.336 219.125C297.409 219.219 297.507 219.289 297.629 219.336C297.751 219.383 297.893 219.406 298.055 219.406Z" fill="#475569"/>
<rect y="225" width="400" height="76" fill="url(#paint1_linear_3503_480)"/>
<path d="M48.6445 48V42.1797H50.7891C51.2031 42.1797 51.5456 42.2474 51.8164 42.3828C52.0872 42.5182 52.2891 42.7018 52.4219 42.9336C52.5547 43.1628 52.6211 43.4206 52.6211 43.707C52.6211 43.9492 52.5768 44.1536 52.4883 44.3203C52.3997 44.4844 52.2799 44.6172 52.1289 44.7188C51.9805 44.8177 51.8164 44.8906 51.6367 44.9375V44.9961C51.832 45.0039 52.0221 45.0664 52.207 45.1836C52.3919 45.2982 52.5443 45.4609 52.6641 45.6719C52.7865 45.8802 52.8477 46.1341 52.8477 46.4336C52.8477 46.7279 52.7773 46.9935 52.6367 47.2305C52.4987 47.4674 52.2852 47.6549 51.9961 47.793C51.707 47.931 51.3359 48 50.8828 48H48.6445ZM49.5352 47.2344H50.793C51.2096 47.2344 51.5091 47.1536 51.6914 46.9922C51.8737 46.8307 51.9648 46.6302 51.9648 46.3906C51.9648 46.2031 51.918 46.0339 51.8242 45.8828C51.7331 45.7318 51.6029 45.612 51.4336 45.5234C51.2643 45.4323 51.0625 45.3867 50.8281 45.3867H49.5352V47.2344ZM49.5352 44.6992H50.7031C50.8984 44.6992 51.0755 44.6615 51.2344 44.5859C51.3932 44.5104 51.5182 44.4036 51.6094 44.2656C51.7005 44.1276 51.7461 43.9661 51.7461 43.7812C51.7461 43.5417 51.6628 43.3424 51.4961 43.1836C51.3294 43.0221 51.0729 42.9414 50.7266 42.9414H49.5352V44.6992ZM55.7188 48.0898C55.2891 48.0898 54.918 47.9974 54.6055 47.8125C54.293 47.6276 54.0521 47.3672 53.8828 47.0312C53.7161 46.6953 53.6328 46.3008 53.6328 45.8477C53.6328 45.3997 53.7148 45.0052 53.8789 44.6641C54.0456 44.3229 54.2799 44.0573 54.582 43.8672C54.8841 43.6745 55.2383 43.5781 55.6445 43.5781C55.8945 43.5781 56.1354 43.6198 56.3672 43.7031C56.599 43.7839 56.8073 43.9115 56.9922 44.0859C57.1771 44.2604 57.3229 44.487 57.4297 44.7656C57.5391 45.0417 57.5938 45.3776 57.5938 45.7734V46.0781H54.1133V45.4375H57.1523L56.75 45.6484C56.75 45.3802 56.7083 45.1445 56.625 44.9414C56.5417 44.7357 56.418 44.5755 56.2539 44.4609C56.0924 44.3464 55.8893 44.2891 55.6445 44.2891C55.4023 44.2891 55.1953 44.3477 55.0234 44.4648C54.8516 44.582 54.7201 44.737 54.6289 44.9297C54.5404 45.1198 54.4961 45.3281 54.4961 45.5547V45.9922C54.4961 46.2917 54.5469 46.5456 54.6484 46.7539C54.7526 46.9596 54.8971 47.1159 55.082 47.2227C55.2669 47.3268 55.4818 47.3789 55.7266 47.3789C55.888 47.3789 56.0339 47.3568 56.1641 47.3125C56.2943 47.2656 56.4062 47.1966 56.5 47.1055C56.5964 47.0117 56.6693 46.8971 56.7188 46.7617L57.5273 46.9531C57.457 47.1771 57.3385 47.375 57.1719 47.5469C57.0078 47.7188 56.8021 47.8529 56.5547 47.9492C56.3099 48.043 56.0312 48.0898 55.7188 48.0898ZM60.7031 43.6328V44.332H58.0391V43.6328H60.7031ZM58.8672 48V43.1328C58.8672 42.862 58.9271 42.6354 59.0469 42.4531C59.1693 42.2708 59.3294 42.1341 59.5273 42.043C59.7253 41.9518 59.9388 41.9062 60.168 41.9062C60.3424 41.9062 60.4909 41.9206 60.6133 41.9492C60.7383 41.9779 60.8294 42.0026 60.8867 42.0234L60.6875 42.7188C60.6458 42.7057 60.5938 42.6927 60.5312 42.6797C60.4714 42.6641 60.3958 42.6562 60.3047 42.6562C60.1016 42.6562 59.9544 42.707 59.8633 42.8086C59.7721 42.9102 59.7266 43.0573 59.7266 43.25V48H58.8672ZM63.2031 48.0898C62.7943 48.0898 62.4362 47.9961 62.1289 47.8086C61.8242 47.6211 61.5872 47.3581 61.418 47.0195C61.2487 46.681 61.1641 46.2878 61.1641 45.8398C61.1641 45.3867 61.2487 44.9909 61.418 44.6523C61.5872 44.3112 61.8242 44.0469 62.1289 43.8594C62.4362 43.6719 62.7943 43.5781 63.2031 43.5781C63.6146 43.5781 63.9727 43.6719 64.2773 43.8594C64.5846 44.0469 64.8229 44.3112 64.9922 44.6523C65.1615 44.9909 65.2461 45.3867 65.2461 45.8398C65.2461 46.2878 65.1615 46.681 64.9922 47.0195C64.8229 47.3581 64.5846 47.6211 64.2773 47.8086C63.9727 47.9961 63.6146 48.0898 63.2031 48.0898ZM63.2031 47.3633C63.4688 47.3633 63.6875 47.2943 63.8594 47.1562C64.0339 47.0156 64.1628 46.8307 64.2461 46.6016C64.332 46.3698 64.375 46.1159 64.375 45.8398C64.375 45.5612 64.332 45.306 64.2461 45.0742C64.1628 44.8398 64.0339 44.6536 63.8594 44.5156C63.6875 44.375 63.4688 44.3047 63.2031 44.3047C62.9401 44.3047 62.7227 44.375 62.5508 44.5156C62.3789 44.6536 62.25 44.8385 62.1641 45.0703C62.0807 45.3021 62.0391 45.5586 62.0391 45.8398C62.0391 46.1159 62.0807 46.3698 62.1641 46.6016C62.25 46.8307 62.3789 47.0156 62.5508 47.1562C62.7227 47.2943 62.9401 47.3633 63.2031 47.3633ZM66.2031 48V43.6328H67.0352V44.3359H67.082C67.1628 44.0964 67.3034 43.9089 67.5039 43.7734C67.7044 43.638 67.9323 43.5703 68.1875 43.5703C68.2422 43.5703 68.3047 43.5729 68.375 43.5781C68.4453 43.5807 68.5039 43.5859 68.5508 43.5938V44.4141C68.5195 44.4036 68.4596 44.3932 68.3711 44.3828C68.2826 44.3724 68.1927 44.3672 68.1016 44.3672C67.9036 44.3672 67.7253 44.4089 67.5664 44.4922C67.4076 44.5755 67.2839 44.6914 67.1953 44.8398C67.1068 44.9857 67.0625 45.1549 67.0625 45.3477V48H66.2031ZM71.0234 48.0898C70.5938 48.0898 70.2227 47.9974 69.9102 47.8125C69.5977 47.6276 69.3568 47.3672 69.1875 47.0312C69.0208 46.6953 68.9375 46.3008 68.9375 45.8477C68.9375 45.3997 69.0195 45.0052 69.1836 44.6641C69.3503 44.3229 69.5846 44.0573 69.8867 43.8672C70.1888 43.6745 70.543 43.5781 70.9492 43.5781C71.1992 43.5781 71.4401 43.6198 71.6719 43.7031C71.9036 43.7839 72.112 43.9115 72.2969 44.0859C72.4818 44.2604 72.6276 44.487 72.7344 44.7656C72.8438 45.0417 72.8984 45.3776 72.8984 45.7734V46.0781H69.418V45.4375H72.457L72.0547 45.6484C72.0547 45.3802 72.013 45.1445 71.9297 44.9414C71.8464 44.7357 71.7227 44.5755 71.5586 44.4609C71.3971 44.3464 71.194 44.2891 70.9492 44.2891C70.707 44.2891 70.5 44.3477 70.3281 44.4648C70.1562 44.582 70.0247 44.737 69.9336 44.9297C69.8451 45.1198 69.8008 45.3281 69.8008 45.5547V45.9922C69.8008 46.2917 69.8516 46.5456 69.9531 46.7539C70.0573 46.9596 70.2018 47.1159 70.3867 47.2227C70.5716 47.3268 70.7865 47.3789 71.0312 47.3789C71.1927 47.3789 71.3385 47.3568 71.4688 47.3125C71.599 47.2656 71.7109 47.1966 71.8047 47.1055C71.901 47.0117 71.974 46.8971 72.0234 46.7617L72.832 46.9531C72.7617 47.1771 72.6432 47.375 72.4766 47.5469C72.3125 47.7188 72.1068 47.8529 71.8594 47.9492C71.6146 48.043 71.3359 48.0898 71.0234 48.0898Z" fill="#64748B"/>
<path d="M218.199 48L220.27 42.1797H221.363L223.473 48H222.508L221.375 44.7617C221.286 44.4987 221.189 44.1888 221.082 43.832C220.978 43.4753 220.857 43.0469 220.719 42.5469H220.898C220.766 43.0521 220.646 43.4857 220.539 43.8477C220.435 44.207 220.342 44.5117 220.262 44.7617L219.164 48H218.199ZM219.32 46.4648V45.7227H222.348V46.4648H219.32ZM226.391 43.6328V44.332H223.727V43.6328H226.391ZM224.555 48V43.1328C224.555 42.862 224.615 42.6354 224.734 42.4531C224.857 42.2708 225.017 42.1341 225.215 42.043C225.413 41.9518 225.626 41.9062 225.855 41.9062C226.03 41.9062 226.178 41.9206 226.301 41.9492C226.426 41.9779 226.517 42.0026 226.574 42.0234L226.375 42.7188C226.333 42.7057 226.281 42.6927 226.219 42.6797C226.159 42.6641 226.083 42.6562 225.992 42.6562C225.789 42.6562 225.642 42.707 225.551 42.8086C225.46 42.9102 225.414 43.0573 225.414 43.25V48H224.555ZM228.844 43.6328V44.332H226.477V43.6328H228.844ZM227.113 42.5938H227.973V46.8203C227.973 46.9948 228.009 47.1237 228.082 47.207C228.158 47.2878 228.28 47.3281 228.449 47.3281C228.493 47.3281 228.552 47.3229 228.625 47.3125C228.698 47.3021 228.76 47.2917 228.812 47.2812L228.965 47.9688C228.874 48 228.776 48.0221 228.672 48.0352C228.568 48.0508 228.465 48.0586 228.363 48.0586C227.967 48.0586 227.66 47.957 227.441 47.7539C227.223 47.5482 227.113 47.2604 227.113 46.8906V42.5938ZM231.508 48.0898C231.078 48.0898 230.707 47.9974 230.395 47.8125C230.082 47.6276 229.841 47.3672 229.672 47.0312C229.505 46.6953 229.422 46.3008 229.422 45.8477C229.422 45.3997 229.504 45.0052 229.668 44.6641C229.835 44.3229 230.069 44.0573 230.371 43.8672C230.673 43.6745 231.027 43.5781 231.434 43.5781C231.684 43.5781 231.924 43.6198 232.156 43.7031C232.388 43.7839 232.596 43.9115 232.781 44.0859C232.966 44.2604 233.112 44.487 233.219 44.7656C233.328 45.0417 233.383 45.3776 233.383 45.7734V46.0781H229.902V45.4375H232.941L232.539 45.6484C232.539 45.3802 232.497 45.1445 232.414 44.9414C232.331 44.7357 232.207 44.5755 232.043 44.4609C231.882 44.3464 231.678 44.2891 231.434 44.2891C231.191 44.2891 230.984 44.3477 230.812 44.4648C230.641 44.582 230.509 44.737 230.418 44.9297C230.329 45.1198 230.285 45.3281 230.285 45.5547V45.9922C230.285 46.2917 230.336 46.5456 230.438 46.7539C230.542 46.9596 230.686 47.1159 230.871 47.2227C231.056 47.3268 231.271 47.3789 231.516 47.3789C231.677 47.3789 231.823 47.3568 231.953 47.3125C232.083 47.2656 232.195 47.1966 232.289 47.1055C232.385 47.0117 232.458 46.8971 232.508 46.7617L233.316 46.9531C233.246 47.1771 233.128 47.375 232.961 47.5469C232.797 47.7188 232.591 47.8529 232.344 47.9492C232.099 48.043 231.82 48.0898 231.508 48.0898ZM234.328 48V43.6328H235.16V44.3359H235.207C235.288 44.0964 235.428 43.9089 235.629 43.7734C235.829 43.638 236.057 43.5703 236.312 43.5703C236.367 43.5703 236.43 43.5729 236.5 43.5781C236.57 43.5807 236.629 43.5859 236.676 43.5938V44.4141C236.645 44.4036 236.585 44.3932 236.496 44.3828C236.408 44.3724 236.318 44.3672 236.227 44.3672C236.029 44.3672 235.85 44.4089 235.691 44.4922C235.533 44.5755 235.409 44.6914 235.32 44.8398C235.232 44.9857 235.188 45.1549 235.188 45.3477V48H234.328Z" fill="#64748B"/>
</g>
<defs>
<radialGradient id="paint0_radial_3503_480" cx="0" cy="0" r="1" gradientUnits="userSpaceOnUse" gradientTransform="translate(200 150) rotate(90) scale(150 200)">
<stop stop-color="#EFF6FF"/>
<stop offset="1" stop-color="white"/>
</radialGradient>
<linearGradient id="paint1_linear_3503_480" x1="200" y1="225" x2="200" y2="301" gradientUnits="userSpaceOnUse">
<stop stop-color="white" stop-opacity="0"/>
<stop offset="1" stop-color="white"/>
</linearGradient>
<clipPath id="clip0_3503_480">
<rect width="400" height="300" fill="white"/>
</clipPath>
<pattern id="pattern0_3503_480" patternUnits="userSpaceOnUse" viewBox="244 767.52 86 132.84" width="21.5%" height="45.806895288927798%" patternContentUnits="objectBoundingBox">
<g id="pattern0_3503_480_inner">
<rect x="158" y="697" width="86" height="1" fill="#F1F5F9"/>
</g>
<use xlink:href="#pattern0_3503_480_inner" transform="translate(86 0)"/>
<use xlink:href="#pattern0_3503_480_inner" transform="translate(43 66.42)"/>
<use xlink:href="#pattern0_3503_480_inner" transform="translate(129 66.42)"/>
<use xlink:href="#pattern0_3503_480_inner" transform="translate(0 132.84)"/>
<use xlink:href="#pattern0_3503_480_inner" transform="translate(86 132.84)"/>
</pattern></defs>
</svg>
