<svg width="400" height="300" viewBox="0 0 400 300" fill="none" xmlns="http://www.w3.org/2000/svg">
<rect width="400" height="300" fill="url(#paint0_radial_3503_578)"/>
<line x1="45" y1="149.5" x2="356" y2="149.5" stroke="#7DD3FC" stroke-dasharray="1 2"/>
<rect x="45.5" y="130.5" width="39.2857" height="39.2857" rx="4.92857" fill="white"/>
<rect x="45.5" y="130.5" width="39.2857" height="39.2857" rx="4.92857" stroke="#E2E8F0"/>
<path d="M55.1431 159.143C55.143 157.603 55.5872 156.096 56.4224 154.803C57.2576 153.509 58.4483 152.484 59.8517 151.851C61.255 151.218 62.8113 151.003 64.3338 151.232C65.8563 151.461 67.5718 152.5 67.5718 152.5" stroke="#0369A1" stroke-width="2" stroke-linecap="round" stroke-linejoin="round"/>
<path d="M63.1431 151.143C65.9045 151.143 68.1431 148.904 68.1431 146.143C68.1431 143.382 65.9045 141.143 63.1431 141.143C60.3816 141.143 58.1431 143.382 58.1431 146.143C58.1431 148.904 60.3816 151.143 63.1431 151.143Z" stroke="#0369A1" stroke-width="2" stroke-linecap="round" stroke-linejoin="round"/>
<path d="M70.5718 153.28C70.7718 152.88 71.0718 152.48 71.4718 152.28C71.8859 152.041 72.3694 151.95 72.8422 152.022C73.315 152.095 73.7488 152.327 74.0718 152.68C74.3718 153.08 74.5718 153.48 74.5718 153.98C74.5718 155.28 72.5718 155.98 72.5718 155.98" stroke="#0369A1" stroke-width="2" stroke-linecap="round" stroke-linejoin="round"/>
<path d="M72.5718 160V160.01" stroke="#0369A1" stroke-width="2" stroke-linecap="round" stroke-linejoin="round"/>
<rect x="320.5" y="130.5" width="39.2857" height="39.2857" rx="4.92857" fill="white"/>
<rect x="320.5" y="130.5" width="39.2857" height="39.2857" rx="4.92857" stroke="#BAE6FD"/>
<path d="M330.143 159.143C330.143 157.603 330.587 156.096 331.422 154.803C332.258 153.509 333.448 152.484 334.852 151.851C336.255 151.218 337.811 151.003 339.334 151.232C340.856 151.461 342.28 152.125 343.435 153.143" stroke="#0369A1" stroke-width="2" stroke-linecap="round" stroke-linejoin="round"/>
<path d="M338.143 151.143C340.904 151.143 343.143 148.904 343.143 146.143C343.143 143.382 340.904 141.143 338.143 141.143C335.382 141.143 333.143 143.382 333.143 146.143C333.143 148.904 335.382 151.143 338.143 151.143Z" stroke="#0369A1" stroke-width="2" stroke-linecap="round" stroke-linejoin="round"/>
<path d="M344.143 157.143L346.143 159.143L350.143 155.143" stroke="#0369A1" stroke-width="2" stroke-linecap="round" stroke-linejoin="round"/>
<rect x="117" y="104.632" width="166" height="91.7363" rx="8" fill="#F1F5F9"/>
<rect x="119" y="106.632" width="162" height="60" rx="6" fill="white"/>
<path d="M131.806 129.632V122.356H133.09L135.829 126.688C135.92 126.831 136.023 127.002 136.137 127.2C136.251 127.399 136.371 127.623 136.498 127.874C136.625 128.121 136.75 128.392 136.874 128.685H136.737C136.708 128.408 136.685 128.134 136.669 127.864C136.656 127.591 136.646 127.335 136.64 127.098C136.633 126.86 136.63 126.66 136.63 126.497V122.356H137.758V129.632H136.469L134.013 125.76C133.882 125.548 133.754 125.335 133.627 125.12C133.503 124.905 133.365 124.658 133.212 124.378C133.062 124.095 132.878 123.751 132.66 123.348H132.836C132.852 123.706 132.868 124.041 132.885 124.354C132.901 124.663 132.912 124.938 132.919 125.179C132.929 125.416 132.934 125.607 132.934 125.75V129.632H131.806ZM141.645 129.744C141.107 129.744 140.644 129.629 140.253 129.397C139.862 129.166 139.561 128.841 139.35 128.421C139.141 128.001 139.037 127.508 139.037 126.941C139.037 126.382 139.14 125.888 139.345 125.462C139.553 125.035 139.846 124.703 140.224 124.466C140.601 124.225 141.044 124.104 141.552 124.104C141.864 124.104 142.165 124.157 142.455 124.261C142.745 124.362 143.005 124.521 143.236 124.739C143.467 124.957 143.65 125.241 143.783 125.589C143.92 125.934 143.988 126.354 143.988 126.849V127.229H139.638V126.429H143.437L142.934 126.692C142.934 126.357 142.882 126.062 142.777 125.809C142.673 125.551 142.519 125.351 142.313 125.208C142.112 125.065 141.858 124.993 141.552 124.993C141.249 124.993 140.99 125.066 140.775 125.213C140.561 125.359 140.396 125.553 140.282 125.794C140.172 126.032 140.116 126.292 140.116 126.575V127.122C140.116 127.496 140.18 127.814 140.307 128.074C140.437 128.331 140.618 128.527 140.849 128.66C141.08 128.79 141.348 128.855 141.654 128.855C141.856 128.855 142.038 128.828 142.201 128.772C142.364 128.714 142.504 128.628 142.621 128.514C142.742 128.396 142.833 128.253 142.895 128.084L143.905 128.323C143.817 128.603 143.669 128.851 143.461 129.065C143.256 129.28 142.999 129.448 142.689 129.568C142.383 129.686 142.035 129.744 141.645 129.744ZM146.2 129.632L144.56 124.173H145.692L146.293 126.434C146.381 126.772 146.475 127.15 146.576 127.566C146.677 127.98 146.775 128.447 146.869 128.968H146.713C146.807 128.466 146.905 128.007 147.006 127.591C147.107 127.174 147.203 126.788 147.294 126.434L147.895 124.173H148.969L149.56 126.434C149.651 126.779 149.745 127.16 149.843 127.576C149.944 127.993 150.041 128.457 150.136 128.968H149.975C150.072 128.463 150.17 128.003 150.268 127.586C150.365 127.169 150.46 126.785 150.551 126.434L151.151 124.173H152.294L150.648 129.632H149.569L148.896 127.283C148.827 127.046 148.76 126.798 148.695 126.541C148.63 126.281 148.567 126.015 148.505 125.745C148.443 125.475 148.38 125.206 148.314 124.939H148.534C148.472 125.203 148.409 125.472 148.344 125.745C148.282 126.015 148.218 126.282 148.153 126.546C148.088 126.806 148.021 127.052 147.953 127.283L147.279 129.632H146.2ZM158.314 129.744C157.777 129.744 157.313 129.629 156.923 129.397C156.532 129.166 156.231 128.841 156.02 128.421C155.811 128.001 155.707 127.508 155.707 126.941C155.707 126.382 155.81 125.888 156.015 125.462C156.223 125.035 156.516 124.703 156.894 124.466C157.271 124.225 157.714 124.104 158.222 124.104C158.534 124.104 158.835 124.157 159.125 124.261C159.415 124.362 159.675 124.521 159.906 124.739C160.137 124.957 160.32 125.241 160.453 125.589C160.59 125.934 160.658 126.354 160.658 126.849V127.229H156.308V126.429H160.106L159.604 126.692C159.604 126.357 159.551 126.062 159.447 125.809C159.343 125.551 159.188 125.351 158.983 125.208C158.782 125.065 158.528 124.993 158.222 124.993C157.919 124.993 157.66 125.066 157.445 125.213C157.23 125.359 157.066 125.553 156.952 125.794C156.841 126.032 156.786 126.292 156.786 126.575V127.122C156.786 127.496 156.85 127.814 156.977 128.074C157.107 128.331 157.287 128.527 157.519 128.66C157.75 128.79 158.018 128.855 158.324 128.855C158.526 128.855 158.708 128.828 158.871 128.772C159.034 128.714 159.174 128.628 159.291 128.514C159.411 128.396 159.503 128.253 159.564 128.084L160.575 128.323C160.487 128.603 160.339 128.851 160.131 129.065C159.926 129.28 159.669 129.448 159.359 129.568C159.053 129.686 158.705 129.744 158.314 129.744ZM161.84 129.632V124.173H162.86L162.89 125.438H162.807C162.885 125.128 163.005 124.874 163.168 124.676C163.331 124.477 163.521 124.329 163.739 124.231C163.957 124.131 164.185 124.08 164.423 124.08C164.82 124.08 165.141 124.204 165.385 124.451C165.629 124.695 165.793 125.037 165.878 125.477H165.741C165.813 125.177 165.937 124.923 166.112 124.715C166.288 124.507 166.5 124.349 166.747 124.241C166.998 124.134 167.265 124.08 167.548 124.08C167.87 124.08 168.161 124.15 168.422 124.29C168.686 124.43 168.894 124.638 169.047 124.915C169.2 125.192 169.276 125.537 169.276 125.95V129.632H168.202V126.058C168.202 125.693 168.1 125.429 167.895 125.267C167.693 125.104 167.453 125.022 167.177 125.022C166.952 125.022 166.758 125.07 166.596 125.164C166.433 125.258 166.308 125.39 166.22 125.56C166.132 125.726 166.088 125.918 166.088 126.136V129.632H165.028V125.989C165.028 125.696 164.934 125.462 164.745 125.286C164.56 125.11 164.322 125.022 164.032 125.022C163.834 125.022 163.648 125.07 163.476 125.164C163.306 125.255 163.17 125.392 163.065 125.574C162.965 125.753 162.914 125.975 162.914 126.238V129.632H161.84ZM170.727 131.673V124.173H171.771V125.062H171.859C171.924 124.948 172.014 124.816 172.128 124.666C172.245 124.516 172.406 124.386 172.611 124.275C172.82 124.161 173.095 124.104 173.437 124.104C173.873 124.104 174.262 124.215 174.604 124.437C174.949 124.658 175.22 124.979 175.419 125.398C175.618 125.818 175.717 126.325 175.717 126.917C175.717 127.503 175.619 128.007 175.424 128.431C175.229 128.851 174.958 129.174 174.613 129.402C174.271 129.627 173.879 129.739 173.437 129.739C173.108 129.739 172.838 129.684 172.626 129.573C172.418 129.459 172.253 129.327 172.133 129.178C172.016 129.028 171.924 128.895 171.859 128.777H171.801V131.673H170.727ZM173.197 128.826C173.51 128.826 173.772 128.742 173.983 128.572C174.195 128.403 174.353 128.174 174.457 127.884C174.564 127.594 174.618 127.269 174.618 126.907C174.618 126.549 174.564 126.229 174.457 125.945C174.353 125.659 174.195 125.433 173.983 125.267C173.775 125.101 173.513 125.018 173.197 125.018C172.891 125.018 172.632 125.097 172.421 125.257C172.209 125.413 172.05 125.633 171.942 125.916C171.835 126.196 171.781 126.526 171.781 126.907C171.781 127.285 171.835 127.618 171.942 127.908C172.053 128.195 172.214 128.419 172.426 128.582C172.637 128.745 172.895 128.826 173.197 128.826ZM177.982 122.356V129.632H176.908V122.356H177.982ZM181.723 129.744C181.212 129.744 180.764 129.627 180.38 129.393C179.999 129.158 179.703 128.829 179.491 128.406C179.28 127.983 179.174 127.492 179.174 126.932C179.174 126.365 179.28 125.87 179.491 125.447C179.703 125.021 179.999 124.69 180.38 124.456C180.764 124.222 181.212 124.104 181.723 124.104C182.237 124.104 182.685 124.222 183.065 124.456C183.45 124.69 183.747 125.021 183.959 125.447C184.171 125.87 184.276 126.365 184.276 126.932C184.276 127.492 184.171 127.983 183.959 128.406C183.747 128.829 183.45 129.158 183.065 129.393C182.685 129.627 182.237 129.744 181.723 129.744ZM181.723 128.836C182.055 128.836 182.328 128.75 182.543 128.577C182.761 128.401 182.922 128.17 183.026 127.884C183.134 127.594 183.188 127.277 183.188 126.932C183.188 126.583 183.134 126.264 183.026 125.975C182.922 125.682 182.761 125.449 182.543 125.276C182.328 125.101 182.055 125.013 181.723 125.013C181.394 125.013 181.122 125.101 180.907 125.276C180.692 125.449 180.531 125.68 180.424 125.97C180.32 126.259 180.268 126.58 180.268 126.932C180.268 127.277 180.32 127.594 180.424 127.884C180.531 128.17 180.692 128.401 180.907 128.577C181.122 128.75 181.394 128.836 181.723 128.836ZM185.214 131.595L185.478 130.721L185.6 130.75C185.785 130.799 185.951 130.812 186.098 130.789C186.247 130.766 186.376 130.696 186.483 130.579C186.594 130.465 186.682 130.291 186.747 130.057L186.864 129.656L184.789 124.173H185.951L187.03 127.273C187.151 127.618 187.25 127.962 187.328 128.304C187.41 128.646 187.497 128.986 187.592 129.324H187.26C187.354 128.986 187.444 128.646 187.528 128.304C187.616 127.959 187.72 127.615 187.841 127.273L188.939 124.173H190.092L187.719 130.389C187.608 130.682 187.471 130.926 187.309 131.121C187.149 131.316 186.959 131.463 186.737 131.561C186.516 131.661 186.259 131.712 185.966 131.712C185.797 131.712 185.645 131.699 185.512 131.673C185.378 131.65 185.279 131.624 185.214 131.595ZM193.207 129.744C192.67 129.744 192.206 129.629 191.815 129.397C191.425 129.166 191.124 128.841 190.912 128.421C190.704 128.001 190.6 127.508 190.6 126.941C190.6 126.382 190.702 125.888 190.907 125.462C191.116 125.035 191.409 124.703 191.786 124.466C192.164 124.225 192.606 124.104 193.114 124.104C193.427 124.104 193.728 124.157 194.018 124.261C194.307 124.362 194.568 124.521 194.799 124.739C195.03 124.957 195.212 125.241 195.346 125.589C195.482 125.934 195.551 126.354 195.551 126.849V127.229H191.2V126.429H194.999L194.496 126.692C194.496 126.357 194.444 126.062 194.34 125.809C194.236 125.551 194.081 125.351 193.876 125.208C193.674 125.065 193.42 124.993 193.114 124.993C192.812 124.993 192.553 125.066 192.338 125.213C192.123 125.359 191.959 125.553 191.845 125.794C191.734 126.032 191.679 126.292 191.679 126.575V127.122C191.679 127.496 191.742 127.814 191.869 128.074C191.999 128.331 192.18 128.527 192.411 128.66C192.642 128.79 192.911 128.855 193.217 128.855C193.419 128.855 193.601 128.828 193.764 128.772C193.926 128.714 194.066 128.628 194.184 128.514C194.304 128.396 194.395 128.253 194.457 128.084L195.468 128.323C195.38 128.603 195.232 128.851 195.023 129.065C194.818 129.28 194.561 129.448 194.252 129.568C193.946 129.686 193.598 129.744 193.207 129.744ZM199.086 129.744C198.549 129.744 198.085 129.629 197.694 129.397C197.304 129.166 197.003 128.841 196.791 128.421C196.583 128.001 196.479 127.508 196.479 126.941C196.479 126.382 196.581 125.888 196.786 125.462C196.994 125.035 197.287 124.703 197.665 124.466C198.043 124.225 198.485 124.104 198.993 124.104C199.306 124.104 199.607 124.157 199.896 124.261C200.186 124.362 200.447 124.521 200.678 124.739C200.909 124.957 201.091 125.241 201.225 125.589C201.361 125.934 201.43 126.354 201.43 126.849V127.229H197.079V126.429H200.878L200.375 126.692C200.375 126.357 200.323 126.062 200.219 125.809C200.115 125.551 199.96 125.351 199.755 125.208C199.553 125.065 199.299 124.993 198.993 124.993C198.69 124.993 198.432 125.066 198.217 125.213C198.002 125.359 197.838 125.553 197.724 125.794C197.613 126.032 197.558 126.292 197.558 126.575V127.122C197.558 127.496 197.621 127.814 197.748 128.074C197.878 128.331 198.059 128.527 198.29 128.66C198.521 128.79 198.79 128.855 199.096 128.855C199.298 128.855 199.48 128.828 199.643 128.772C199.805 128.714 199.945 128.628 200.062 128.514C200.183 128.396 200.274 128.253 200.336 128.084L201.347 128.323C201.259 128.603 201.111 128.851 200.902 129.065C200.697 129.28 200.44 129.448 200.131 129.568C199.825 129.686 199.477 129.744 199.086 129.744Z" fill="#020617"/>
<line x1="131.5" y1="142.132" x2="131.5" y2="154.132" stroke="#E2E8F0" stroke-linecap="round"/>
<path d="M143.789 150.632L142.203 144.812H142.961L143.883 148.382C143.932 148.572 143.979 148.766 144.023 148.964C144.068 149.159 144.111 149.358 144.152 149.562C144.194 149.762 144.233 149.969 144.27 150.183H144.18C144.219 149.969 144.259 149.762 144.301 149.562C144.342 149.358 144.387 149.159 144.434 148.964C144.48 148.766 144.529 148.572 144.578 148.382L145.52 144.812H146.363L147.297 148.382C147.349 148.572 147.397 148.766 147.441 148.964C147.488 149.159 147.534 149.358 147.578 149.562C147.622 149.762 147.664 149.969 147.703 150.183H147.602C147.641 149.969 147.681 149.762 147.723 149.562C147.764 149.358 147.809 149.159 147.855 148.964C147.902 148.766 147.949 148.572 147.996 148.382L148.914 144.812H149.68L148.086 150.632H147.223L146.223 146.944C146.158 146.705 146.095 146.444 146.035 146.163C145.975 145.879 145.917 145.552 145.859 145.183H146.016C145.958 145.532 145.902 145.844 145.848 146.12C145.793 146.394 145.728 146.668 145.652 146.944L144.656 150.632H143.789ZM151.203 148.015V150.632H150.5V144.812H151.203V147.323H151.082C151.215 146.92 151.404 146.633 151.648 146.464C151.896 146.295 152.185 146.21 152.516 146.21C152.81 146.21 153.068 146.271 153.289 146.394C153.513 146.513 153.686 146.696 153.809 146.94C153.934 147.183 153.996 147.489 153.996 147.858V150.632H153.289V147.917C153.289 147.581 153.201 147.318 153.023 147.128C152.849 146.938 152.609 146.843 152.305 146.843C152.096 146.843 151.909 146.888 151.742 146.979C151.576 147.071 151.444 147.203 151.348 147.378C151.251 147.552 151.203 147.765 151.203 148.015ZM157.012 150.726C156.616 150.726 156.268 150.632 155.969 150.444C155.672 150.257 155.44 149.994 155.273 149.655C155.107 149.317 155.023 148.924 155.023 148.476C155.023 148.02 155.107 147.623 155.273 147.284C155.44 146.943 155.672 146.679 155.969 146.491C156.268 146.304 156.616 146.21 157.012 146.21C157.41 146.21 157.759 146.304 158.059 146.491C158.358 146.679 158.591 146.943 158.758 147.284C158.924 147.623 159.008 148.02 159.008 148.476C159.008 148.924 158.924 149.317 158.758 149.655C158.591 149.994 158.358 150.257 158.059 150.444C157.759 150.632 157.41 150.726 157.012 150.726ZM157.012 150.097C157.306 150.097 157.548 150.021 157.738 149.87C157.928 149.719 158.069 149.521 158.16 149.276C158.251 149.029 158.297 148.762 158.297 148.476C158.297 148.187 158.251 147.918 158.16 147.671C158.069 147.421 157.928 147.22 157.738 147.069C157.548 146.916 157.306 146.839 157.012 146.839C156.72 146.839 156.48 146.916 156.293 147.069C156.105 147.22 155.966 147.42 155.875 147.667C155.784 147.914 155.738 148.184 155.738 148.476C155.738 148.762 155.784 149.029 155.875 149.276C155.966 149.521 156.105 149.719 156.293 149.87C156.48 150.021 156.72 150.097 157.012 150.097ZM163.918 150.726C163.556 150.726 163.236 150.633 162.957 150.448C162.678 150.263 162.461 150.002 162.305 149.663C162.148 149.325 162.07 148.924 162.07 148.46C162.07 147.999 162.148 147.601 162.305 147.265C162.464 146.926 162.682 146.666 162.961 146.483C163.24 146.301 163.56 146.21 163.922 146.21C164.206 146.21 164.431 146.257 164.598 146.351C164.764 146.444 164.892 146.551 164.98 146.671C165.072 146.788 165.141 146.886 165.188 146.964H165.242V144.812H165.945V150.632H165.266V149.956H165.188C165.141 150.037 165.07 150.138 164.977 150.261C164.885 150.381 164.755 150.489 164.586 150.585C164.419 150.679 164.197 150.726 163.918 150.726ZM164.023 150.097C164.289 150.097 164.513 150.028 164.695 149.89C164.878 149.749 165.016 149.555 165.109 149.308C165.203 149.06 165.25 148.775 165.25 148.452C165.25 148.129 165.203 147.848 165.109 147.608C165.018 147.366 164.882 147.177 164.699 147.042C164.517 146.907 164.292 146.839 164.023 146.839C163.747 146.839 163.517 146.91 163.332 147.054C163.15 147.197 163.013 147.391 162.922 147.636C162.831 147.878 162.785 148.15 162.785 148.452C162.785 148.757 162.831 149.034 162.922 149.284C163.016 149.532 163.155 149.729 163.34 149.878C163.525 150.024 163.753 150.097 164.023 150.097ZM168.957 150.726C168.561 150.726 168.214 150.632 167.914 150.444C167.617 150.257 167.385 149.994 167.219 149.655C167.052 149.317 166.969 148.924 166.969 148.476C166.969 148.02 167.052 147.623 167.219 147.284C167.385 146.943 167.617 146.679 167.914 146.491C168.214 146.304 168.561 146.21 168.957 146.21C169.355 146.21 169.704 146.304 170.004 146.491C170.303 146.679 170.536 146.943 170.703 147.284C170.87 147.623 170.953 148.02 170.953 148.476C170.953 148.924 170.87 149.317 170.703 149.655C170.536 149.994 170.303 150.257 170.004 150.444C169.704 150.632 169.355 150.726 168.957 150.726ZM168.957 150.097C169.251 150.097 169.493 150.021 169.684 149.87C169.874 149.719 170.014 149.521 170.105 149.276C170.197 149.029 170.242 148.762 170.242 148.476C170.242 148.187 170.197 147.918 170.105 147.671C170.014 147.421 169.874 147.22 169.684 147.069C169.493 146.916 169.251 146.839 168.957 146.839C168.665 146.839 168.426 146.916 168.238 147.069C168.051 147.22 167.911 147.42 167.82 147.667C167.729 147.914 167.684 148.184 167.684 148.476C167.684 148.762 167.729 149.029 167.82 149.276C167.911 149.521 168.051 149.719 168.238 149.87C168.426 150.021 168.665 150.097 168.957 150.097ZM175.055 144.812V150.632H174.312V144.812H175.055ZM180.344 146.265V146.866H178.086V146.265H180.344ZM178.742 145.226H179.445V149.499C179.445 149.694 179.484 149.838 179.562 149.929C179.643 150.017 179.776 150.062 179.961 150.062C180.005 150.062 180.061 150.056 180.129 150.046C180.199 150.035 180.263 150.025 180.32 150.015L180.465 150.608C180.392 150.634 180.309 150.654 180.215 150.667C180.124 150.68 180.033 150.687 179.941 150.687C179.564 150.687 179.27 150.588 179.059 150.39C178.848 150.189 178.742 149.91 178.742 149.554V145.226ZM182.504 150.733C182.228 150.733 181.977 150.681 181.75 150.577C181.526 150.473 181.348 150.321 181.215 150.12C181.082 149.92 181.016 149.676 181.016 149.39C181.016 149.14 181.065 148.937 181.164 148.78C181.263 148.624 181.395 148.502 181.559 148.413C181.725 148.322 181.909 148.254 182.109 148.21C182.31 148.166 182.512 148.131 182.715 148.104C182.975 148.071 183.188 148.045 183.352 148.026C183.516 148.008 183.637 147.977 183.715 147.933C183.796 147.888 183.836 147.813 183.836 147.706V147.683C183.836 147.5 183.802 147.347 183.734 147.222C183.667 147.094 183.565 146.996 183.43 146.929C183.294 146.861 183.125 146.827 182.922 146.827C182.714 146.827 182.535 146.86 182.387 146.925C182.238 146.99 182.117 147.072 182.023 147.171C181.932 147.267 181.863 147.366 181.816 147.468L181.141 147.245C181.253 146.979 181.404 146.772 181.594 146.624C181.784 146.473 181.993 146.366 182.223 146.304C182.452 146.241 182.678 146.21 182.902 146.21C183.048 146.21 183.214 146.228 183.398 146.265C183.586 146.299 183.766 146.368 183.938 146.472C184.112 146.576 184.255 146.731 184.367 146.937C184.482 147.14 184.539 147.412 184.539 147.753V150.632H183.848V150.038H183.801C183.751 150.14 183.672 150.245 183.562 150.354C183.453 150.461 183.311 150.551 183.137 150.624C182.962 150.697 182.751 150.733 182.504 150.733ZM182.625 150.112C182.885 150.112 183.105 150.062 183.285 149.96C183.465 149.858 183.602 149.727 183.695 149.565C183.789 149.401 183.836 149.231 183.836 149.054V148.448C183.807 148.482 183.745 148.513 183.648 148.542C183.552 148.568 183.441 148.591 183.316 148.612C183.194 148.633 183.074 148.651 182.957 148.667C182.842 148.68 182.751 148.69 182.684 148.698C182.514 148.719 182.355 148.756 182.207 148.808C182.061 148.857 181.944 148.931 181.855 149.03C181.767 149.127 181.723 149.258 181.723 149.425C181.723 149.576 181.762 149.702 181.84 149.804C181.918 149.905 182.025 149.982 182.16 150.034C182.296 150.086 182.451 150.112 182.625 150.112ZM186.477 144.812V150.632H185.773V144.812H186.477ZM188.371 149.062V148.19H188.5L190.367 146.265H191.238L189.219 148.339H189.141L188.371 149.062ZM187.711 150.632V144.812H188.414V150.632H187.711ZM190.473 150.632L188.801 148.495L189.301 147.999L191.375 150.632H190.473ZM196.07 146.265V146.866H193.812V146.265H196.07ZM194.469 145.226H195.172V149.499C195.172 149.694 195.211 149.838 195.289 149.929C195.37 150.017 195.503 150.062 195.688 150.062C195.732 150.062 195.788 150.056 195.855 150.046C195.926 150.035 195.99 150.025 196.047 150.015L196.191 150.608C196.118 150.634 196.035 150.654 195.941 150.667C195.85 150.68 195.759 150.687 195.668 150.687C195.29 150.687 194.996 150.588 194.785 150.39C194.574 150.189 194.469 149.91 194.469 149.554V145.226ZM198.668 150.726C198.272 150.726 197.924 150.632 197.625 150.444C197.328 150.257 197.096 149.994 196.93 149.655C196.763 149.317 196.68 148.924 196.68 148.476C196.68 148.02 196.763 147.623 196.93 147.284C197.096 146.943 197.328 146.679 197.625 146.491C197.924 146.304 198.272 146.21 198.668 146.21C199.066 146.21 199.415 146.304 199.715 146.491C200.014 146.679 200.247 146.943 200.414 147.284C200.581 147.623 200.664 148.02 200.664 148.476C200.664 148.924 200.581 149.317 200.414 149.655C200.247 149.994 200.014 150.257 199.715 150.444C199.415 150.632 199.066 150.726 198.668 150.726ZM198.668 150.097C198.962 150.097 199.204 150.021 199.395 149.87C199.585 149.719 199.725 149.521 199.816 149.276C199.908 149.029 199.953 148.762 199.953 148.476C199.953 148.187 199.908 147.918 199.816 147.671C199.725 147.421 199.585 147.22 199.395 147.069C199.204 146.916 198.962 146.839 198.668 146.839C198.376 146.839 198.137 146.916 197.949 147.069C197.762 147.22 197.622 147.42 197.531 147.667C197.44 147.914 197.395 148.184 197.395 148.476C197.395 148.762 197.44 149.029 197.531 149.276C197.622 149.521 197.762 149.719 197.949 149.87C198.137 150.021 198.376 150.097 198.668 150.097ZM205.16 150.733C204.884 150.733 204.633 150.681 204.406 150.577C204.182 150.473 204.004 150.321 203.871 150.12C203.738 149.92 203.672 149.676 203.672 149.39C203.672 149.14 203.721 148.937 203.82 148.78C203.919 148.624 204.051 148.502 204.215 148.413C204.382 148.322 204.565 148.254 204.766 148.21C204.966 148.166 205.168 148.131 205.371 148.104C205.632 148.071 205.844 148.045 206.008 148.026C206.172 148.008 206.293 147.977 206.371 147.933C206.452 147.888 206.492 147.813 206.492 147.706V147.683C206.492 147.5 206.458 147.347 206.391 147.222C206.323 147.094 206.221 146.996 206.086 146.929C205.951 146.861 205.781 146.827 205.578 146.827C205.37 146.827 205.191 146.86 205.043 146.925C204.895 146.99 204.773 147.072 204.68 147.171C204.589 147.267 204.52 147.366 204.473 147.468L203.797 147.245C203.909 146.979 204.06 146.772 204.25 146.624C204.44 146.473 204.65 146.366 204.879 146.304C205.108 146.241 205.335 146.21 205.559 146.21C205.704 146.21 205.87 146.228 206.055 146.265C206.242 146.299 206.422 146.368 206.594 146.472C206.768 146.576 206.911 146.731 207.023 146.937C207.138 147.14 207.195 147.412 207.195 147.753V150.632H206.504V150.038H206.457C206.408 150.14 206.328 150.245 206.219 150.354C206.109 150.461 205.967 150.551 205.793 150.624C205.618 150.697 205.408 150.733 205.16 150.733ZM205.281 150.112C205.542 150.112 205.762 150.062 205.941 149.96C206.121 149.858 206.258 149.727 206.352 149.565C206.445 149.401 206.492 149.231 206.492 149.054V148.448C206.464 148.482 206.401 148.513 206.305 148.542C206.208 148.568 206.098 148.591 205.973 148.612C205.85 148.633 205.73 148.651 205.613 148.667C205.499 148.68 205.408 148.69 205.34 148.698C205.171 148.719 205.012 148.756 204.863 148.808C204.717 148.857 204.6 148.931 204.512 149.03C204.423 149.127 204.379 149.258 204.379 149.425C204.379 149.576 204.418 149.702 204.496 149.804C204.574 149.905 204.681 149.982 204.816 150.034C204.952 150.086 205.107 150.112 205.281 150.112ZM210.457 150.726C210.181 150.726 209.958 150.679 209.789 150.585C209.62 150.489 209.49 150.381 209.398 150.261C209.307 150.138 209.237 150.037 209.188 149.956H209.109V150.632H208.43V144.812H209.133V146.964H209.188C209.237 146.886 209.306 146.788 209.395 146.671C209.483 146.551 209.611 146.444 209.777 146.351C209.944 146.257 210.169 146.21 210.453 146.21C210.818 146.21 211.138 146.301 211.414 146.483C211.693 146.666 211.91 146.926 212.066 147.265C212.225 147.601 212.305 147.999 212.305 148.46C212.305 148.924 212.227 149.325 212.07 149.663C211.914 150.002 211.697 150.263 211.418 150.448C211.142 150.633 210.822 150.726 210.457 150.726ZM210.352 150.097C210.625 150.097 210.853 150.024 211.035 149.878C211.22 149.729 211.358 149.532 211.449 149.284C211.543 149.034 211.59 148.757 211.59 148.452C211.59 148.15 211.544 147.878 211.453 147.636C211.362 147.391 211.224 147.197 211.039 147.054C210.857 146.91 210.628 146.839 210.352 146.839C210.083 146.839 209.858 146.907 209.676 147.042C209.493 147.177 209.355 147.366 209.262 147.608C209.171 147.848 209.125 148.129 209.125 148.452C209.125 148.775 209.172 149.06 209.266 149.308C209.359 149.555 209.497 149.749 209.68 149.89C209.865 150.028 210.089 150.097 210.352 150.097ZM215.105 150.726C214.71 150.726 214.362 150.632 214.062 150.444C213.766 150.257 213.534 149.994 213.367 149.655C213.201 149.317 213.117 148.924 213.117 148.476C213.117 148.02 213.201 147.623 213.367 147.284C213.534 146.943 213.766 146.679 214.062 146.491C214.362 146.304 214.71 146.21 215.105 146.21C215.504 146.21 215.853 146.304 216.152 146.491C216.452 146.679 216.685 146.943 216.852 147.284C217.018 147.623 217.102 148.02 217.102 148.476C217.102 148.924 217.018 149.317 216.852 149.655C216.685 149.994 216.452 150.257 216.152 150.444C215.853 150.632 215.504 150.726 215.105 150.726ZM215.105 150.097C215.4 150.097 215.642 150.021 215.832 149.87C216.022 149.719 216.163 149.521 216.254 149.276C216.345 149.029 216.391 148.762 216.391 148.476C216.391 148.187 216.345 147.918 216.254 147.671C216.163 147.421 216.022 147.22 215.832 147.069C215.642 146.916 215.4 146.839 215.105 146.839C214.814 146.839 214.574 146.916 214.387 147.069C214.199 147.22 214.06 147.42 213.969 147.667C213.878 147.914 213.832 148.184 213.832 148.476C213.832 148.762 213.878 149.029 213.969 149.276C214.06 149.521 214.199 149.719 214.387 149.87C214.574 150.021 214.814 150.097 215.105 150.097ZM219.605 150.687C219.311 150.687 219.052 150.627 218.828 150.507C218.607 150.384 218.434 150.201 218.309 149.956C218.186 149.711 218.125 149.405 218.125 149.038V146.265H218.828V148.979C218.828 149.315 218.917 149.578 219.094 149.769C219.271 149.959 219.512 150.054 219.816 150.054C220.025 150.054 220.211 150.008 220.375 149.917C220.542 149.826 220.673 149.693 220.77 149.519C220.866 149.341 220.914 149.129 220.914 148.882V146.265H221.621V150.632H220.941V149.573H221.035C220.9 149.982 220.707 150.27 220.457 150.437C220.21 150.603 219.926 150.687 219.605 150.687ZM224.578 146.265V146.866H222.32V146.265H224.578ZM222.977 145.226H223.68V149.499C223.68 149.694 223.719 149.838 223.797 149.929C223.878 150.017 224.01 150.062 224.195 150.062C224.24 150.062 224.296 150.056 224.363 150.046C224.434 150.035 224.497 150.025 224.555 150.015L224.699 150.608C224.626 150.634 224.543 150.654 224.449 150.667C224.358 150.68 224.267 150.687 224.176 150.687C223.798 150.687 223.504 150.588 223.293 150.39C223.082 150.189 222.977 149.91 222.977 149.554V145.226ZM227.812 150.632V144.812H229.805C230.258 144.812 230.63 144.895 230.922 145.062C231.216 145.226 231.434 145.447 231.574 145.726C231.717 146.004 231.789 146.317 231.789 146.663C231.789 147.009 231.717 147.323 231.574 147.604C231.434 147.886 231.217 148.11 230.926 148.276C230.634 148.443 230.262 148.526 229.809 148.526H228.398V147.874H229.773C230.081 147.874 230.328 147.822 230.516 147.718C230.703 147.611 230.839 147.466 230.922 147.284C231.008 147.099 231.051 146.892 231.051 146.663C231.051 146.434 231.008 146.229 230.922 146.05C230.839 145.868 230.702 145.724 230.512 145.62C230.324 145.516 230.076 145.464 229.766 145.464H228.555V150.632H227.812ZM232.602 145.468V144.812H237V145.468H235.176V150.632H234.434V145.468H232.602ZM240.203 150.71C239.706 150.71 239.262 150.59 238.871 150.351C238.483 150.108 238.177 149.765 237.953 149.319C237.729 148.871 237.617 148.34 237.617 147.726C237.617 147.108 237.729 146.577 237.953 146.132C238.177 145.684 238.483 145.339 238.871 145.097C239.262 144.854 239.706 144.733 240.203 144.733C240.701 144.733 241.143 144.854 241.531 145.097C241.919 145.339 242.224 145.684 242.445 146.132C242.669 146.577 242.781 147.108 242.781 147.726C242.781 148.34 242.669 148.871 242.445 149.319C242.224 149.765 241.919 150.108 241.531 150.351C241.143 150.59 240.701 150.71 240.203 150.71ZM240.203 150.022C240.549 150.022 240.862 149.935 241.141 149.761C241.422 149.584 241.645 149.325 241.809 148.983C241.975 148.64 242.059 148.22 242.059 147.726C242.059 147.226 241.975 146.805 241.809 146.464C241.645 146.12 241.422 145.861 241.141 145.687C240.862 145.509 240.549 145.421 240.203 145.421C239.854 145.421 239.539 145.509 239.258 145.687C238.977 145.864 238.753 146.124 238.586 146.468C238.422 146.809 238.34 147.228 238.34 147.726C238.34 148.22 238.422 148.638 238.586 148.979C238.753 149.321 238.977 149.58 239.258 149.757C239.539 149.934 239.854 150.022 240.203 150.022ZM244.754 148.878V148.835C244.754 148.478 244.788 148.203 244.855 148.011C244.926 147.815 245.026 147.662 245.156 147.55C245.286 147.435 245.441 147.325 245.621 147.218C245.793 147.114 245.938 146.982 246.055 146.823C246.172 146.662 246.23 146.468 246.23 146.241C246.23 146.059 246.188 145.903 246.102 145.772C246.018 145.64 245.905 145.537 245.762 145.464C245.618 145.391 245.458 145.354 245.281 145.354C245.128 145.354 244.979 145.387 244.836 145.452C244.695 145.515 244.578 145.614 244.484 145.749C244.391 145.884 244.336 146.06 244.32 146.276H243.578C243.591 145.948 243.674 145.67 243.828 145.44C243.984 145.211 244.189 145.037 244.441 144.917C244.694 144.795 244.974 144.733 245.281 144.733C245.62 144.733 245.913 144.8 246.16 144.933C246.41 145.063 246.604 145.244 246.742 145.476C246.88 145.707 246.949 145.972 246.949 146.269C246.949 146.584 246.88 146.853 246.742 147.077C246.604 147.301 246.409 147.49 246.156 147.644C245.99 147.745 245.854 147.844 245.75 147.94C245.648 148.034 245.574 148.149 245.527 148.284C245.483 148.42 245.461 148.603 245.461 148.835V148.878H244.754ZM245.117 150.683C244.971 150.683 244.846 150.632 244.742 150.53C244.641 150.426 244.59 150.302 244.59 150.159C244.59 150.013 244.641 149.89 244.742 149.788C244.846 149.684 244.971 149.632 245.117 149.632C245.263 149.632 245.387 149.684 245.488 149.788C245.59 149.89 245.641 150.013 245.641 150.159C245.641 150.302 245.59 150.426 245.488 150.53C245.387 150.632 245.263 150.683 245.117 150.683Z" fill="#334155"/>
<rect x="122.75" y="172.382" width="18.5" height="18.2363" rx="4.25" fill="white"/>
<rect x="122.75" y="172.382" width="18.5" height="18.2363" rx="4.25" stroke="#E2E8F0" stroke-width="0.5"/>
<path fill-rule="evenodd" clip-rule="evenodd" d="M129.674 181.602C129.606 181.787 129.497 181.955 129.355 182.094H129.356C129.192 182.254 128.989 182.371 128.767 182.435C128.544 182.498 128.308 182.506 128.082 182.457C127.855 182.409 127.645 182.305 127.47 182.157C127.296 182.008 127.162 181.819 127.083 181.607C127.004 181.395 126.981 181.167 127.016 180.944C127.052 180.721 127.144 180.51 127.286 180.331C127.427 180.152 127.613 180.011 127.826 179.921C128.038 179.83 128.271 179.793 128.502 179.813L128.495 179.807C128.732 179.826 128.97 179.795 129.193 179.716C129.416 179.637 129.618 179.511 129.786 179.348C129.954 179.185 130.083 178.988 130.165 178.771C130.246 178.554 130.278 178.323 130.258 178.093L130.265 178.1C130.239 177.825 130.3 177.548 130.441 177.308C130.582 177.069 130.795 176.877 131.053 176.759C131.31 176.642 131.598 176.604 131.878 176.652C132.158 176.699 132.416 176.83 132.617 177.025C132.818 177.22 132.952 177.471 133.001 177.743C133.05 178.015 133.011 178.296 132.89 178.545C132.769 178.795 132.572 179.003 132.325 179.14C132.078 179.277 131.794 179.337 131.511 179.311L131.519 179.318C131.282 179.298 131.044 179.329 130.821 179.408C130.598 179.487 130.395 179.613 130.227 179.776C130.059 179.939 129.93 180.136 129.848 180.353C129.767 180.57 129.735 180.802 129.755 181.032L129.748 181.025C129.767 181.22 129.742 181.417 129.674 181.602ZM131.872 182.827L131.865 182.821C132.066 182.84 132.269 182.816 132.46 182.75C132.65 182.684 132.823 182.578 132.966 182.439C133.109 182.301 133.218 182.132 133.286 181.947C133.354 181.762 133.379 181.565 133.359 181.37L133.366 181.376C133.346 181.146 133.378 180.915 133.459 180.698C133.541 180.481 133.67 180.284 133.838 180.121C134.006 179.958 134.209 179.832 134.432 179.753C134.654 179.674 134.893 179.643 135.129 179.662L135.122 179.656C135.405 179.682 135.689 179.622 135.936 179.485C136.183 179.348 136.38 179.14 136.501 178.89C136.622 178.64 136.661 178.36 136.612 178.088C136.563 177.815 136.429 177.565 136.228 177.369C136.027 177.174 135.769 177.043 135.489 176.996C135.209 176.948 134.921 176.986 134.663 177.103C134.406 177.221 134.192 177.413 134.052 177.653C133.911 177.893 133.849 178.169 133.876 178.444L133.869 178.437C133.889 178.667 133.857 178.899 133.776 179.116C133.694 179.332 133.565 179.529 133.397 179.692C133.229 179.856 133.027 179.981 132.804 180.061C132.581 180.14 132.342 180.171 132.106 180.151L132.113 180.158C131.912 180.138 131.709 180.162 131.518 180.228C131.328 180.294 131.155 180.401 131.012 180.539C130.869 180.678 130.76 180.846 130.692 181.031C130.624 181.216 130.599 181.414 130.619 181.609L130.612 181.603C130.632 181.833 130.6 182.064 130.519 182.281C130.437 182.497 130.308 182.694 130.14 182.857C129.972 183.021 129.77 183.146 129.547 183.225C129.324 183.305 129.086 183.336 128.849 183.316L128.856 183.323C128.573 183.297 128.288 183.357 128.042 183.494C127.795 183.631 127.597 183.839 127.476 184.089C127.356 184.339 127.317 184.619 127.366 184.891C127.415 185.163 127.549 185.414 127.75 185.61C127.951 185.805 128.209 185.935 128.489 185.983C128.769 186.03 129.057 185.993 129.314 185.875C129.572 185.758 129.785 185.566 129.926 185.326C130.067 185.086 130.129 184.81 130.102 184.534L130.109 184.541C130.089 184.311 130.121 184.08 130.203 183.863C130.284 183.646 130.413 183.449 130.581 183.286C130.749 183.123 130.952 182.997 131.175 182.918C131.398 182.839 131.636 182.808 131.872 182.827ZM134.643 180.905C134.501 181.044 134.392 181.212 134.324 181.397C134.256 181.582 134.231 181.779 134.25 181.974L134.244 181.968C134.264 182.198 134.232 182.429 134.15 182.646C134.069 182.863 133.939 183.059 133.771 183.223C133.604 183.386 133.401 183.511 133.178 183.591C132.955 183.67 132.717 183.701 132.48 183.682L132.487 183.688C132.204 183.663 131.92 183.722 131.673 183.86C131.427 183.997 131.229 184.205 131.109 184.455C130.988 184.705 130.949 184.985 130.998 185.257C131.048 185.529 131.182 185.78 131.383 185.975C131.584 186.171 131.842 186.301 132.122 186.348C132.402 186.396 132.69 186.358 132.947 186.24C133.205 186.123 133.418 185.931 133.559 185.691C133.7 185.451 133.761 185.175 133.735 184.9L133.742 184.906C133.722 184.676 133.754 184.445 133.835 184.228C133.917 184.011 134.046 183.814 134.214 183.651C134.382 183.488 134.584 183.362 134.807 183.283C135.03 183.204 135.268 183.173 135.505 183.192L135.498 183.186C135.729 183.206 135.961 183.169 136.174 183.079C136.387 182.988 136.572 182.847 136.714 182.668C136.855 182.489 136.948 182.279 136.984 182.056C137.019 181.833 136.996 181.605 136.917 181.393C136.838 181.181 136.705 180.992 136.53 180.843C136.355 180.694 136.145 180.591 135.918 180.542C135.692 180.493 135.456 180.501 135.233 180.564C135.011 180.628 134.808 180.745 134.644 180.905H134.643Z" fill="url(#paint1_linear_3503_578)"/>
<path d="M151.062 184.578C150.56 184.578 150.111 184.46 149.715 184.223C149.319 183.983 149.008 183.641 148.781 183.195C148.555 182.747 148.441 182.214 148.441 181.594C148.441 180.971 148.555 180.438 148.781 179.992C149.008 179.544 149.319 179.201 149.715 178.961C150.111 178.721 150.56 178.602 151.062 178.602C151.37 178.602 151.658 178.646 151.926 178.734C152.197 178.823 152.438 178.952 152.648 179.121C152.862 179.29 153.038 179.496 153.176 179.738C153.316 179.98 153.411 180.255 153.461 180.562H152.566C152.53 180.378 152.465 180.215 152.371 180.074C152.28 179.931 152.168 179.81 152.035 179.711C151.902 179.612 151.754 179.538 151.59 179.488C151.426 179.439 151.253 179.414 151.07 179.414C150.737 179.414 150.438 179.499 150.172 179.668C149.909 179.835 149.702 180.081 149.551 180.406C149.4 180.729 149.324 181.125 149.324 181.594C149.324 182.062 149.401 182.46 149.555 182.785C149.708 183.108 149.917 183.353 150.18 183.52C150.443 183.684 150.74 183.766 151.07 183.766C151.253 183.766 151.424 183.741 151.586 183.691C151.75 183.639 151.898 183.565 152.031 183.469C152.167 183.37 152.28 183.249 152.371 183.105C152.465 182.962 152.53 182.799 152.566 182.617H153.465C153.421 182.904 153.331 183.167 153.195 183.406C153.06 183.643 152.887 183.85 152.676 184.027C152.465 184.204 152.223 184.341 151.949 184.438C151.678 184.531 151.383 184.578 151.062 184.578ZM155.305 181.914V184.5H154.445V178.68H155.297V181.203H155.184C155.311 180.812 155.496 180.527 155.738 180.348C155.98 180.168 156.273 180.078 156.617 180.078C156.914 180.078 157.173 180.141 157.395 180.266C157.618 180.391 157.792 180.576 157.914 180.82C158.039 181.062 158.102 181.365 158.102 181.727V184.5H157.242V181.832C157.242 181.517 157.16 181.271 156.996 181.094C156.832 180.917 156.607 180.828 156.32 180.828C156.128 180.828 155.954 180.871 155.801 180.957C155.647 181.04 155.526 181.163 155.438 181.324C155.349 181.486 155.305 181.682 155.305 181.914ZM161.141 184.59C160.711 184.59 160.34 184.497 160.027 184.312C159.715 184.128 159.474 183.867 159.305 183.531C159.138 183.195 159.055 182.801 159.055 182.348C159.055 181.9 159.137 181.505 159.301 181.164C159.467 180.823 159.702 180.557 160.004 180.367C160.306 180.174 160.66 180.078 161.066 180.078C161.316 180.078 161.557 180.12 161.789 180.203C162.021 180.284 162.229 180.411 162.414 180.586C162.599 180.76 162.745 180.987 162.852 181.266C162.961 181.542 163.016 181.878 163.016 182.273V182.578H159.535V181.938H162.574L162.172 182.148C162.172 181.88 162.13 181.645 162.047 181.441C161.964 181.236 161.84 181.076 161.676 180.961C161.514 180.846 161.311 180.789 161.066 180.789C160.824 180.789 160.617 180.848 160.445 180.965C160.273 181.082 160.142 181.237 160.051 181.43C159.962 181.62 159.918 181.828 159.918 182.055V182.492C159.918 182.792 159.969 183.046 160.07 183.254C160.174 183.46 160.319 183.616 160.504 183.723C160.689 183.827 160.904 183.879 161.148 183.879C161.31 183.879 161.456 183.857 161.586 183.812C161.716 183.766 161.828 183.697 161.922 183.605C162.018 183.512 162.091 183.397 162.141 183.262L162.949 183.453C162.879 183.677 162.76 183.875 162.594 184.047C162.43 184.219 162.224 184.353 161.977 184.449C161.732 184.543 161.453 184.59 161.141 184.59ZM165.797 184.59C165.385 184.59 165.027 184.496 164.723 184.309C164.418 184.121 164.181 183.858 164.012 183.52C163.842 183.181 163.758 182.788 163.758 182.34C163.758 181.887 163.842 181.491 164.012 181.152C164.181 180.811 164.418 180.547 164.723 180.359C165.027 180.172 165.385 180.078 165.797 180.078C166.023 180.078 166.236 180.108 166.434 180.168C166.632 180.225 166.81 180.31 166.969 180.422C167.13 180.531 167.266 180.667 167.375 180.828C167.487 180.987 167.57 181.167 167.625 181.367L166.809 181.562C166.78 181.451 166.736 181.349 166.676 181.258C166.616 181.164 166.543 181.083 166.457 181.016C166.374 180.948 166.276 180.896 166.164 180.859C166.055 180.823 165.934 180.805 165.801 180.805C165.538 180.805 165.319 180.875 165.145 181.016C164.973 181.154 164.844 181.339 164.758 181.57C164.674 181.802 164.633 182.059 164.633 182.34C164.633 182.618 164.674 182.874 164.758 183.105C164.844 183.335 164.973 183.518 165.145 183.656C165.319 183.794 165.538 183.863 165.801 183.863C165.936 183.863 166.06 183.845 166.172 183.809C166.284 183.77 166.384 183.716 166.473 183.648C166.561 183.578 166.635 183.495 166.695 183.398C166.755 183.299 166.798 183.191 166.824 183.074L167.637 183.27C167.585 183.475 167.503 183.66 167.391 183.824C167.279 183.986 167.142 184.124 166.98 184.238C166.822 184.353 166.642 184.44 166.441 184.5C166.241 184.56 166.026 184.59 165.797 184.59ZM169.371 183.027V181.977H169.516L171.238 180.133H172.27L170.297 182.246H170.152L169.371 183.027ZM168.578 184.5V178.68H169.438V184.5H168.578ZM171.328 184.5L169.777 182.438L170.371 181.828L172.391 184.5H171.328ZM173.055 184.5V180.133H173.914V184.5H173.055ZM173.488 179.465C173.34 179.465 173.212 179.415 173.105 179.316C173.001 179.217 172.949 179.098 172.949 178.957C172.949 178.814 173.001 178.693 173.105 178.594C173.212 178.495 173.34 178.445 173.488 178.445C173.637 178.445 173.764 178.495 173.871 178.594C173.978 178.693 174.031 178.814 174.031 178.957C174.031 179.098 173.978 179.217 173.871 179.316C173.764 179.415 173.637 179.465 173.488 179.465ZM175.93 181.914V184.5H175.07V180.133H175.891L175.898 181.203H175.809C175.936 180.812 176.121 180.527 176.363 180.348C176.605 180.168 176.898 180.078 177.242 180.078C177.539 180.078 177.798 180.141 178.02 180.266C178.241 180.391 178.414 180.576 178.539 180.82C178.664 181.062 178.727 181.365 178.727 181.727V184.5H177.867V181.832C177.867 181.517 177.785 181.271 177.621 181.094C177.457 180.917 177.232 180.828 176.945 180.828C176.753 180.828 176.579 180.871 176.426 180.957C176.272 181.04 176.151 181.163 176.062 181.324C175.974 181.486 175.93 181.682 175.93 181.914ZM181.707 186.227C181.371 186.227 181.079 186.184 180.832 186.098C180.585 186.012 180.38 185.897 180.219 185.754C180.06 185.611 179.939 185.452 179.855 185.277L180.574 184.938C180.626 185.021 180.695 185.108 180.781 185.199C180.87 185.293 180.988 185.372 181.137 185.438C181.285 185.503 181.475 185.535 181.707 185.535C182.04 185.535 182.31 185.456 182.516 185.297C182.724 185.141 182.828 184.895 182.828 184.559V183.707H182.754C182.702 183.803 182.629 183.908 182.535 184.02C182.444 184.132 182.315 184.229 182.148 184.312C181.984 184.393 181.77 184.434 181.504 184.434C181.16 184.434 180.85 184.353 180.574 184.191C180.301 184.03 180.083 183.79 179.922 183.473C179.76 183.155 179.68 182.764 179.68 182.301C179.68 181.837 179.759 181.44 179.918 181.109C180.079 180.776 180.298 180.521 180.574 180.344C180.853 180.167 181.167 180.078 181.516 180.078C181.784 180.078 182.001 180.122 182.168 180.211C182.337 180.299 182.469 180.405 182.562 180.527C182.659 180.647 182.732 180.753 182.781 180.844H182.844V180.133H183.684V184.562C183.684 184.945 183.596 185.259 183.422 185.504C183.25 185.751 183.014 185.934 182.715 186.051C182.418 186.168 182.082 186.227 181.707 186.227ZM181.703 183.719C181.948 183.719 182.154 183.663 182.32 183.551C182.49 183.436 182.617 183.272 182.703 183.059C182.789 182.842 182.832 182.586 182.832 182.289C182.832 181.995 182.789 181.737 182.703 181.516C182.617 181.294 182.49 181.121 182.32 180.996C182.154 180.871 181.948 180.809 181.703 180.809C181.451 180.809 181.24 180.875 181.07 181.008C180.901 181.138 180.773 181.315 180.688 181.539C180.602 181.76 180.559 182.01 180.559 182.289C180.559 182.573 180.602 182.823 180.688 183.039C180.773 183.253 180.901 183.419 181.07 183.539C181.242 183.659 181.453 183.719 181.703 183.719ZM185.48 184.559C185.319 184.559 185.182 184.503 185.07 184.391C184.958 184.279 184.902 184.143 184.902 183.984C184.902 183.823 184.958 183.688 185.07 183.578C185.182 183.466 185.319 183.41 185.48 183.41C185.639 183.41 185.775 183.466 185.887 183.578C185.999 183.688 186.055 183.823 186.055 183.984C186.055 184.143 185.999 184.279 185.887 184.391C185.775 184.503 185.639 184.559 185.48 184.559ZM187.91 184.559C187.749 184.559 187.612 184.503 187.5 184.391C187.388 184.279 187.332 184.143 187.332 183.984C187.332 183.823 187.388 183.688 187.5 183.578C187.612 183.466 187.749 183.41 187.91 183.41C188.069 183.41 188.204 183.466 188.316 183.578C188.428 183.688 188.484 183.823 188.484 183.984C188.484 184.143 188.428 184.279 188.316 184.391C188.204 184.503 188.069 184.559 187.91 184.559ZM190.34 184.559C190.178 184.559 190.042 184.503 189.93 184.391C189.818 184.279 189.762 184.143 189.762 183.984C189.762 183.823 189.818 183.688 189.93 183.578C190.042 183.466 190.178 183.41 190.34 183.41C190.499 183.41 190.634 183.466 190.746 183.578C190.858 183.688 190.914 183.823 190.914 183.984C190.914 184.143 190.858 184.279 190.746 184.391C190.634 184.503 190.499 184.559 190.34 184.559Z" fill="url(#paint2_linear_3503_578)"/>
<defs>
<radialGradient id="paint0_radial_3503_578" cx="0" cy="0" r="1" gradientUnits="userSpaceOnUse" gradientTransform="translate(200 150) rotate(90) scale(150 200)">
<stop stop-color="#EFF6FF"/>
<stop offset="1" stop-color="white"/>
</radialGradient>
<linearGradient id="paint1_linear_3503_578" x1="127" y1="176.632" x2="136.733" y2="186.628" gradientUnits="userSpaceOnUse">
<stop stop-color="#3C8CE7"/>
<stop offset="1" stop-color="#00EAFF"/>
</linearGradient>
<linearGradient id="paint2_linear_3503_578" x1="148" y1="181.5" x2="192" y2="181.5" gradientUnits="userSpaceOnUse">
<stop stop-color="#172554" stop-opacity="0"/>
<stop offset="0.620192" stop-color="#172554"/>
<stop offset="1" stop-color="#172554" stop-opacity="0"/>
</linearGradient>
</defs>
</svg>
